<?xml version="1.0" encoding="UTF-8"?>
<svg xmlns="http://www.w3.org/2000/svg" viewBox="0 0 250 295.08">
  <defs>
    <style>
      .cls-1 {
        fill: #d9e6e8;
        mix-blend-mode: multiply;
      }

      .cls-2 {
        fill: gray;
      }

      .cls-3 {
        fill: #0b0e14;
      }

      .cls-4 {
        fill: #7890a0;
      }

      .cls-5 {
        isolation: isolate;
      }

      .cls-6 {
        fill: #f7fcfc;
      }

      .cls-7 {
        fill: #e8eded;
      }

      .cls-8 {
        fill: #eaefef;
      }

      .cls-9 {
        fill: #b3b3b3;
      }

      .cls-10 {
        fill: #c5d7d8;
      }
    </style>
  </defs>
  <g class="cls-5">
    <g id="Layer_1">
      <g>
        <path class="cls-2" d="M121.29,118.09h120.2s8.51-.22,8.51,7.75v160.83c0,9.05-8.08,8.4-8.08,8.4H8.36S0,295.83,0,285.38V90.25s-.75-6.46,11.36-6.46h80.62s4.85-.65,9.86,6.79c5.01,7.43,15.78,27.52,19.44,27.52Z"/>
        <g>
          <polygon class="cls-1" points="249.31 266.02 63.42 277.21 .69 61.51 183.17 16.01 222.6 135.07 249.31 266.02"/>
          <polygon class="cls-7" points="249.31 266.02 56.97 271.96 2.48 53.45 184.96 7.95 249.31 266.02"/>
          <polygon class="cls-1" points="207.05 290.43 22.39 276.69 52.8 9.79 243.04 32.71 207.05 290.43"/>
          <rect class="cls-8" x="-3.06" y="52.94" width="265.97" height="188.06" transform="translate(-31.79 258.02) rotate(-83)"/>
          <polygon class="cls-1" points="220.82 265.75 39.1 272.64 27.39 4.25 224.4 2.46 220.82 265.75"/>
          <rect class="cls-6" x="31.71" width="188.06" height="265.98"/>
          <g>
            <g>
              <path class="cls-3" d="M54.1,52.03v-24.75h5.27v24.75h-5.27Z"/>
              <path class="cls-3" d="M81.44,52.03l-11.8-16.14v16.14h-5.27v-24.75h5.42l11.47,15.55v-15.55h5.27v24.75h-5.09Z"/>
              <path class="cls-3" d="M98.41,52.03l-9.58-24.75h6.01l6.87,19.04,6.83-19.04h6.01l-9.54,24.75h-6.6Z"/>
              <path class="cls-3" d="M114.58,39.67c0-7.46,5.46-12.8,12.91-12.8s12.95,5.34,12.95,12.8-5.46,12.8-12.95,12.8-12.91-5.35-12.91-12.8ZM135.03,39.67c0-4.64-2.97-8.13-7.53-8.13s-7.5,3.49-7.5,8.13,2.93,8.13,7.5,8.13,7.53-3.53,7.53-8.13Z"/>
              <path class="cls-3" d="M144.24,52.03v-24.75h5.27v24.75h-5.27Z"/>
              <path class="cls-3" d="M153.22,39.67c0-7.61,5.75-12.8,13.17-12.8,5.45,0,8.61,2.97,10.35,6.05l-4.53,2.23c-1.04-2-3.26-3.6-5.83-3.6-4.49,0-7.76,3.45-7.76,8.13s3.27,8.13,7.76,8.13c2.56,0,4.79-1.56,5.83-3.6l4.53,2.19c-1.78,3.08-4.9,6.09-10.35,6.09-7.42,0-13.17-5.2-13.17-12.8Z"/>
              <path class="cls-3" d="M179.87,52.03v-24.75h17.52v4.64h-12.25v5.24h11.99v4.64h-11.99v5.6h12.25v4.64h-17.52Z"/>
            </g>
            <path class="cls-3" d="M54.1,60.98h143.29v4.61H54.1v-4.61Z"/>
            <g>
              <path class="cls-10" d="M54.1,83.5h101.53v4.61H54.1v-4.61Z"/>
              <path class="cls-10" d="M54.1,97.07h101.53v4.61H54.1v-4.61Z"/>
              <path class="cls-10" d="M54.1,110.63h101.53v4.61H54.1v-4.61Z"/>
              <path class="cls-10" d="M54.1,124.2h143.29v4.61H54.1v-4.61Z"/>
              <path class="cls-10" d="M54.1,137.76h143.29v4.61H54.1v-4.61Z"/>
              <path class="cls-10" d="M54.1,151.33h143.29v4.61H54.1v-4.61Z"/>
              <path class="cls-10" d="M54.1,164.9h143.29v4.61H54.1v-4.61Z"/>
              <path class="cls-10" d="M54.1,178.46h143.29v4.61H54.1v-4.61Z"/>
              <path class="cls-10" d="M54.1,192.03h143.29v4.61H54.1v-4.61Z"/>
              <path class="cls-10" d="M54.1,205.59h143.29v4.61H54.1v-4.61Z"/>
              <path class="cls-10" d="M54.1,219.16h143.29v4.61H54.1v-4.61Z"/>
              <path class="cls-10" d="M54.1,232.73h143.29v4.61H54.1v-4.61Z"/>
            </g>
          </g>
        </g>
        <path class="cls-9" d="M121.29,144.94h120.2s8.51-.22,8.51,7.75v133.98c0,9.05-8.08,8.4-8.08,8.4H8.35S0,295.83,0,285.38V117.09s-.76-6.46,11.36-6.46h80.62s4.85-.65,9.86,6.78c5.01,7.43,15.78,27.52,19.44,27.52Z"/>
        <g>
          <path class="cls-10" d="M193.79,83.5h-28.16v31.74h31.74v-31.74h-3.58ZM192.76,110.63h-22.52v-22.52h22.52v22.52Z"/>
          <polygon class="cls-4" points="197.05 83.14 181.71 98.48 176.22 92.99 172.57 96.64 178.07 102.13 181.71 105.78 200.7 86.79 197.05 83.14"/>
        </g>
      </g>
    </g>
  </g>
</svg>