<?xml version="1.0" encoding="UTF-8" standalone="no"?>
<!DOCTYPE svg PUBLIC "-//W3C//DTD SVG 1.1//EN" "http://www.w3.org/Graphics/SVG/1.1/DTD/svg11.dtd">
<svg width="100%" height="100%" viewBox="0 0 302 302" version="1.1" xmlns="http://www.w3.org/2000/svg" xmlns:xlink="http://www.w3.org/1999/xlink" xml:space="preserve" xmlns:serif="http://www.serif.com/" style="fill-rule:evenodd;clip-rule:evenodd;">
    <g id="blue">
        <path id="path1" d="M289,151C289,227.22 227.22,289 151,289C74.78,289 13,227.22 13,151C13,74.78 74.78,13 151,13" style="fill:none;fill-rule:nonzero;stroke:rgb(117,117,117);stroke-width:26px;"/>
        <path id="path2" d="M151,13C227.22,13 289,74.78 289,151" style="fill:none;fill-rule:nonzero;stroke:rgb(20,35,66);stroke-width:26px;"/>
        <g id="International-Treasury-Service" serif:id="International Treasury Service" transform="matrix(0.21678,0.97622,-0.97622,0.21678,280.39,118.44)">
            <path d="M4.837,-2.146L6.614,-1.847C6.386,-1.195 6.024,-0.698 5.529,-0.355C5.038,-0.017 4.422,0.152 3.682,0.152C2.509,0.152 1.642,-0.231 1.079,-0.997C0.635,-1.61 0.413,-2.385 0.413,-3.32C0.413,-4.437 0.705,-5.311 1.289,-5.941C1.873,-6.576 2.611,-6.894 3.504,-6.894C4.507,-6.894 5.298,-6.561 5.878,-5.897C6.458,-5.237 6.735,-4.223 6.709,-2.856L2.241,-2.856C2.253,-2.327 2.397,-1.915 2.672,-1.619C2.947,-1.327 3.29,-1.181 3.701,-1.181C3.98,-1.181 4.215,-1.257 4.405,-1.409C4.596,-1.562 4.74,-1.807 4.837,-2.146ZM4.938,-3.948C4.926,-4.465 4.792,-4.856 4.539,-5.123C4.285,-5.393 3.976,-5.529 3.612,-5.529C3.222,-5.529 2.901,-5.387 2.647,-5.104C2.393,-4.82 2.268,-4.435 2.272,-3.948L4.938,-3.948ZM-0.436,-4.726L-2.175,-4.317C-2.253,-4.664 -2.402,-4.921 -2.622,-5.087C-2.839,-5.254 -3.114,-5.329 -3.448,-5.311C-3.892,-5.287 -4.238,-5.115 -4.488,-4.792C-4.734,-4.474 -4.838,-3.956 -4.8,-3.237C-4.758,-2.439 -4.595,-1.881 -4.312,-1.566C-4.024,-1.25 -3.654,-1.105 -3.202,-1.129C-2.864,-1.146 -2.592,-1.256 -2.386,-1.458C-2.181,-1.663 -2.047,-2.003 -1.983,-2.477L-0.217,-2.271C-0.357,-1.459 -0.673,-0.834 -1.167,-0.397C-1.661,0.04 -2.341,0.282 -3.208,0.327C-4.192,0.379 -4.995,0.11 -5.615,-0.48C-6.231,-1.07 -6.568,-1.915 -6.626,-3.014C-6.684,-4.125 -6.436,-5.005 -5.881,-5.653C-5.327,-6.305 -4.549,-6.658 -3.547,-6.71C-2.727,-6.754 -2.067,-6.611 -1.567,-6.281C-1.062,-5.956 -0.685,-5.438 -0.436,-4.726ZM-10.171,-6.985L-10.323,-8.628L-8.547,-8.793L-8.395,-7.149L-10.171,-6.985ZM-9.465,0.638L-10.086,-6.075L-8.31,-6.239L-7.689,0.473L-9.465,0.638ZM-14.591,1.25L-18.17,-5.075L-16.313,-5.321L-14.603,-2.078L-14.087,-0.987C-14.029,-1.289 -13.993,-1.488 -13.98,-1.584C-13.947,-1.78 -13.909,-1.977 -13.866,-2.175L-13.047,-5.754L-11.229,-5.995L-12.999,1.039L-14.591,1.25ZM-19.539,2.036L-21.295,2.35L-22.479,-4.287L-20.848,-4.578L-20.68,-3.634C-20.48,-4.13 -20.283,-4.468 -20.087,-4.649C-19.888,-4.831 -19.646,-4.947 -19.363,-4.998C-18.963,-5.069 -18.558,-5.027 -18.148,-4.873L-18.418,-3.245C-18.748,-3.384 -19.04,-3.43 -19.294,-3.385C-19.54,-3.341 -19.736,-3.235 -19.882,-3.067C-20.029,-2.903 -20.121,-2.636 -20.158,-2.264C-20.191,-1.892 -20.106,-1.142 -19.905,-0.013L-19.539,2.036ZM-24.733,0.868C-24.733,0.868 -22.934,0.769 -22.934,0.769C-23.014,1.455 -23.258,2.02 -23.665,2.463C-24.07,2.901 -24.634,3.201 -25.356,3.364C-26.5,3.621 -27.43,3.438 -28.147,2.814C-28.715,2.313 -29.102,1.606 -29.307,0.694C-29.553,-0.396 -29.46,-1.313 -29.028,-2.056C-28.598,-2.804 -27.947,-3.275 -27.076,-3.471C-26.098,-3.692 -25.253,-3.541 -24.541,-3.02C-23.831,-2.504 -23.338,-1.576 -23.062,-0.236L-27.422,0.744C-27.294,1.258 -27.063,1.629 -26.729,1.857C-26.397,2.082 -26.03,2.149 -25.63,2.059C-25.358,1.998 -25.145,1.872 -24.993,1.681C-24.84,1.491 -24.754,1.22 -24.733,0.868ZM-25.03,-0.913C-25.156,-1.414 -25.372,-1.766 -25.678,-1.971C-25.985,-2.179 -26.316,-2.244 -26.671,-2.164C-27.051,-2.078 -27.334,-1.869 -27.519,-1.537C-27.705,-1.205 -27.742,-0.802 -27.631,-0.328L-25.03,-0.913ZM-37.467,3.291L-35.759,2.617C-35.484,3.176 -35.146,3.548 -34.746,3.733C-34.341,3.916 -33.864,3.929 -33.315,3.771C-32.733,3.605 -32.331,3.357 -32.108,3.029C-31.882,2.696 -31.817,2.364 -31.911,2.035C-31.972,1.823 -32.086,1.662 -32.254,1.552C-32.419,1.437 -32.672,1.368 -33.013,1.347C-33.245,1.335 -33.765,1.343 -34.571,1.371C-35.608,1.409 -36.372,1.309 -36.863,1.071C-37.553,0.736 -38,0.215 -38.203,-0.493C-38.333,-0.949 -38.327,-1.41 -38.184,-1.878C-38.038,-2.352 -37.753,-2.761 -37.328,-3.108C-36.899,-3.455 -36.341,-3.727 -35.654,-3.925C-34.531,-4.247 -33.616,-4.242 -32.91,-3.912C-32.199,-3.583 -31.712,-3.012 -31.448,-2.199L-33.231,-1.602C-33.44,-2.039 -33.701,-2.321 -34.015,-2.447C-34.325,-2.578 -34.735,-2.57 -35.243,-2.424C-35.768,-2.274 -36.148,-2.048 -36.383,-1.748C-36.535,-1.554 -36.577,-1.342 -36.511,-1.11C-36.45,-0.899 -36.309,-0.743 -36.087,-0.644C-35.804,-0.518 -35.194,-0.477 -34.255,-0.522C-33.317,-0.566 -32.607,-0.537 -32.124,-0.433C-31.637,-0.335 -31.221,-0.126 -30.874,0.192C-30.525,0.506 -30.269,0.945 -30.107,1.511C-29.96,2.023 -29.964,2.544 -30.121,3.073C-30.277,3.602 -30.584,4.052 -31.042,4.42C-31.501,4.785 -32.119,5.079 -32.896,5.302C-34.027,5.626 -34.97,5.615 -35.725,5.268C-36.482,4.917 -37.063,4.258 -37.467,3.291L-37.467,3.291ZM-49.191,3.61L-47.417,2.936L-44.21,6.838L-44.438,1.805L-42.711,1.149L-42.633,8.059L-42.613,9.307C-42.62,9.731 -42.654,10.065 -42.715,10.31C-42.772,10.554 -42.865,10.768 -42.993,10.952C-43.117,11.14 -43.293,11.315 -43.52,11.478C-43.744,11.64 -44.014,11.781 -44.33,11.902C-44.651,12.023 -44.978,12.109 -45.312,12.159L-45.957,10.91C-45.676,10.862 -45.431,10.799 -45.221,10.719C-44.833,10.572 -44.59,10.348 -44.491,10.048C-44.391,9.752 -44.358,9.409 -44.393,9.019L-49.191,3.61ZM-48.905,10.849L-50.543,11.556L-53.214,5.367L-51.693,4.71L-51.313,5.59C-51.233,5.062 -51.118,4.688 -50.969,4.467C-50.816,4.244 -50.608,4.076 -50.343,3.962C-49.97,3.801 -49.567,3.748 -49.132,3.805L-49.023,5.452C-49.376,5.392 -49.671,5.413 -49.908,5.516C-50.137,5.615 -50.303,5.763 -50.407,5.96C-50.513,6.153 -50.541,6.435 -50.492,6.805C-50.439,7.174 -50.185,7.885 -49.73,8.938L-48.905,10.849ZM-53.459,12.901L-53.902,11.994C-53.964,12.425 -54.131,12.822 -54.401,13.184C-54.667,13.545 -55,13.823 -55.399,14.018C-55.806,14.217 -56.215,14.306 -56.625,14.285C-57.036,14.265 -57.392,14.128 -57.695,13.875C-57.997,13.623 -58.288,13.211 -58.566,12.641L-60.439,8.808L-58.836,8.025L-57.476,10.808C-57.06,11.66 -56.776,12.169 -56.624,12.335C-56.471,12.495 -56.288,12.595 -56.076,12.632C-55.867,12.667 -55.642,12.625 -55.403,12.508C-55.129,12.374 -54.92,12.18 -54.775,11.926C-54.633,11.668 -54.576,11.409 -54.604,11.15C-54.633,10.887 -54.86,10.321 -55.284,9.455L-56.532,6.899L-54.929,6.116L-51.97,12.173L-53.459,12.901ZM-65.042,16.852L-63.612,15.741C-63.376,16.007 -63.112,16.163 -62.82,16.208C-62.53,16.25 -62.203,16.169 -61.837,15.965C-61.434,15.74 -61.172,15.497 -61.051,15.236C-60.973,15.056 -60.981,14.879 -61.078,14.705C-61.144,14.587 -61.236,14.51 -61.353,14.473C-61.472,14.443 -61.684,14.471 -61.989,14.559C-63.4,14.983 -64.337,15.175 -64.801,15.133C-65.444,15.075 -65.924,14.764 -66.239,14.198C-66.524,13.689 -66.562,13.147 -66.353,12.575C-66.144,12.003 -65.617,11.481 -64.77,11.009C-63.965,10.559 -63.293,10.356 -62.755,10.4C-62.217,10.443 -61.73,10.681 -61.296,11.112L-62.613,12.203C-62.804,12.009 -63.022,11.901 -63.267,11.878C-63.509,11.853 -63.792,11.931 -64.118,12.113C-64.528,12.342 -64.79,12.563 -64.903,12.776C-64.976,12.924 -64.976,13.062 -64.904,13.191C-64.842,13.302 -64.738,13.368 -64.591,13.387C-64.393,13.413 -63.827,13.288 -62.894,13.015C-61.958,12.739 -61.249,12.646 -60.767,12.736C-60.287,12.832 -59.909,13.127 -59.633,13.622C-59.332,14.162 -59.298,14.751 -59.533,15.391C-59.767,16.031 -60.326,16.597 -61.209,17.09C-62.01,17.537 -62.737,17.73 -63.388,17.666C-64.035,17.601 -64.586,17.33 -65.042,16.852L-65.042,16.852ZM-70.851,17.226L-72.377,17.84C-72.569,17.191 -72.561,16.616 -72.351,16.115C-72.142,15.613 -71.666,15.129 -70.925,14.663C-70.251,14.24 -69.699,14.005 -69.268,13.959C-68.839,13.91 -68.481,13.967 -68.193,14.131C-67.904,14.289 -67.553,14.696 -67.141,15.351L-66.049,17.124C-65.734,17.626 -65.477,17.982 -65.28,18.193C-65.081,18.398 -64.83,18.595 -64.526,18.784L-66.02,19.723C-66.123,19.647 -66.264,19.529 -66.446,19.368C-66.527,19.294 -66.582,19.246 -66.611,19.224C-66.711,19.637 -66.869,19.999 -67.084,20.309C-67.299,20.619 -67.573,20.879 -67.906,21.088C-68.494,21.457 -69.058,21.59 -69.599,21.485C-70.136,21.377 -70.558,21.08 -70.864,20.593C-71.067,20.27 -71.17,19.935 -71.173,19.588C-71.179,19.237 -71.086,18.908 -70.893,18.602C-70.699,18.29 -70.372,17.92 -69.912,17.491C-69.29,16.914 -68.878,16.483 -68.678,16.198L-68.773,16.047C-68.955,15.757 -69.156,15.596 -69.376,15.564C-69.598,15.529 -69.908,15.636 -70.306,15.886C-70.575,16.055 -70.75,16.241 -70.833,16.443C-70.918,16.641 -70.924,16.902 -70.851,17.226L-70.851,17.226ZM-68.06,17.181C-68.213,17.367 -68.471,17.637 -68.834,17.99C-69.197,18.343 -69.416,18.603 -69.49,18.77C-69.6,19.034 -69.587,19.273 -69.452,19.488C-69.319,19.699 -69.125,19.832 -68.871,19.887C-68.616,19.942 -68.367,19.893 -68.123,19.74C-67.851,19.569 -67.648,19.316 -67.513,18.982C-67.416,18.731 -67.401,18.489 -67.467,18.256C-67.509,18.102 -67.643,17.844 -67.871,17.482L-68.06,17.181ZM-73.275,21.886L-71.65,21.107C-71.462,21.771 -71.471,22.386 -71.679,22.951C-71.885,23.511 -72.291,24.003 -72.897,24.43C-73.856,25.104 -74.785,25.29 -75.687,24.988C-76.403,24.742 -77.03,24.237 -77.569,23.472C-78.212,22.558 -78.476,21.676 -78.361,20.824C-78.249,19.969 -77.828,19.284 -77.098,18.77C-76.278,18.193 -75.439,18.009 -74.583,18.219C-73.729,18.425 -72.919,19.094 -72.153,20.226L-75.807,22.798C-75.492,23.224 -75.137,23.478 -74.742,23.562C-74.349,23.643 -73.984,23.565 -73.649,23.329C-73.42,23.168 -73.272,22.97 -73.204,22.736C-73.136,22.502 -73.16,22.218 -73.275,21.886L-73.275,21.886ZM-74.229,20.353C-74.537,19.938 -74.871,19.695 -75.232,19.623C-75.596,19.547 -75.926,19.615 -76.224,19.824C-76.542,20.048 -76.724,20.349 -76.768,20.727C-76.813,21.105 -76.693,21.492 -76.41,21.887L-74.229,20.353ZM-77.723,27.794L-79.135,28.884L-83.254,23.548L-81.943,22.535L-81.357,23.294C-81.409,22.762 -81.391,22.371 -81.301,22.12C-81.208,21.867 -81.048,21.652 -80.82,21.476C-80.498,21.228 -80.12,21.077 -79.685,21.025L-79.172,22.593C-79.528,22.623 -79.809,22.716 -80.013,22.874C-80.211,23.027 -80.336,23.211 -80.388,23.428C-80.442,23.641 -80.4,23.921 -80.26,24.268C-80.118,24.612 -79.696,25.238 -78.995,26.146L-77.723,27.794ZM-82.886,31.977L-87.863,26.061L-89.976,27.838L-90.989,26.633L-85.33,21.873L-84.317,23.078L-86.425,24.851L-81.448,30.768L-82.886,31.977ZM-89.546,38.066L-96.004,31.366L-94.72,30.128L-88.262,36.828L-89.546,38.066ZM-96.921,38.885L-98.252,39.851C-98.597,39.269 -98.728,38.709 -98.647,38.171C-98.565,37.634 -98.221,37.049 -97.615,36.417C-97.064,35.843 -96.586,35.481 -96.179,35.332C-95.775,35.18 -95.413,35.148 -95.094,35.237C-94.775,35.32 -94.336,35.63 -93.777,36.166L-92.288,37.621C-91.86,38.031 -91.525,38.314 -91.282,38.471C-91.04,38.621 -90.748,38.751 -90.408,38.861L-91.629,40.134C-91.747,40.086 -91.913,40.006 -92.128,39.893C-92.225,39.842 -92.29,39.809 -92.323,39.794C-92.32,40.219 -92.385,40.608 -92.519,40.961C-92.652,41.314 -92.855,41.633 -93.127,41.917C-93.607,42.418 -94.123,42.683 -94.673,42.712C-95.22,42.739 -95.701,42.553 -96.117,42.154C-96.391,41.891 -96.573,41.591 -96.661,41.254C-96.752,40.915 -96.741,40.574 -96.628,40.23C-96.516,39.881 -96.289,39.442 -95.946,38.914C-95.482,38.204 -95.188,37.686 -95.063,37.36L-95.191,37.237C-95.439,37 -95.673,36.892 -95.894,36.915C-96.118,36.935 -96.393,37.114 -96.718,37.453C-96.937,37.682 -97.063,37.905 -97.094,38.121C-97.129,38.334 -97.071,38.589 -96.921,38.885L-96.921,38.885ZM-94.225,38.164C-94.328,38.382 -94.513,38.706 -94.779,39.136C-95.045,39.567 -95.195,39.872 -95.227,40.053C-95.269,40.335 -95.198,40.564 -95.015,40.74C-94.835,40.912 -94.614,40.995 -94.354,40.986C-94.094,40.978 -93.864,40.87 -93.665,40.662C-93.442,40.43 -93.307,40.135 -93.257,39.778C-93.224,39.511 -93.268,39.272 -93.389,39.062C-93.467,38.923 -93.66,38.706 -93.968,38.41L-94.225,38.164ZM-95.508,44.227L-96.67,45.58L-99.28,43.339C-99.832,42.865 -100.213,42.588 -100.424,42.508C-100.637,42.425 -100.845,42.411 -101.048,42.465C-101.248,42.517 -101.427,42.634 -101.584,42.817C-101.785,43.051 -101.902,43.316 -101.933,43.613C-101.964,43.909 -101.905,44.184 -101.753,44.437C-101.599,44.686 -101.237,45.056 -100.665,45.547L-98.349,47.536L-99.511,48.889L-104.625,44.497L-103.546,43.24L-102.795,43.886C-102.989,42.943 -102.796,42.133 -102.214,41.456C-101.958,41.157 -101.669,40.931 -101.347,40.778C-101.029,40.621 -100.733,40.552 -100.458,40.57C-100.181,40.585 -99.916,40.66 -99.663,40.793C-99.407,40.924 -99.081,41.159 -98.686,41.498L-95.508,44.227ZM-107.204,53.177C-107.675,52.818 -108.043,52.354 -108.306,51.786C-108.57,51.217 -108.656,50.633 -108.565,50.032C-108.471,49.427 -108.224,48.863 -107.824,48.338C-107.205,47.527 -106.434,47.064 -105.51,46.949C-104.59,46.831 -103.728,47.079 -102.924,47.692C-102.113,48.311 -101.64,49.087 -101.506,50.02C-101.372,50.947 -101.608,51.807 -102.214,52.601C-102.589,53.093 -103.058,53.477 -103.621,53.755C-104.182,54.03 -104.765,54.12 -105.369,54.027C-105.977,53.93 -106.589,53.647 -107.204,53.177ZM-106.02,51.782C-105.488,52.187 -104.985,52.372 -104.51,52.335C-104.035,52.298 -103.656,52.095 -103.374,51.725C-103.091,51.355 -102.996,50.937 -103.089,50.473C-103.179,50.005 -103.493,49.566 -104.032,49.155C-104.557,48.754 -105.056,48.573 -105.532,48.609C-106.004,48.643 -106.382,48.844 -106.664,49.214C-106.946,49.585 -107.042,50.004 -106.952,50.472C-106.862,50.939 -106.551,51.376 -106.02,51.782ZM-112.426,53.376L-113.779,52.432L-112.758,50.969L-111.405,51.914L-112.426,53.376ZM-106.15,57.76L-111.676,53.9L-110.655,52.437L-105.128,56.297L-106.15,57.76ZM-112.417,54.966L-111.228,55.746L-111.897,56.765L-109.625,58.255C-109.165,58.557 -108.89,58.724 -108.801,58.758C-108.713,58.785 -108.622,58.782 -108.528,58.747C-108.432,58.709 -108.352,58.64 -108.287,58.541C-108.196,58.403 -108.113,58.172 -108.037,57.847L-106.796,58.479C-106.875,58.923 -107.058,59.365 -107.346,59.803C-107.523,60.072 -107.726,60.286 -107.956,60.443C-108.189,60.599 -108.411,60.682 -108.62,60.691C-108.83,60.695 -109.069,60.636 -109.339,60.515C-109.533,60.433 -109.894,60.219 -110.421,59.874L-112.879,58.261L-113.328,58.946L-114.517,58.166L-114.067,57.481L-115.187,56.746L-115.076,54.679L-113.085,55.985L-112.417,54.966ZM-115.481,63.707L-116.561,64.947C-117.028,64.456 -117.281,63.94 -117.322,63.398C-117.363,62.856 -117.159,62.209 -116.71,61.457C-116.302,60.774 -115.916,60.314 -115.553,60.077C-115.194,59.839 -114.848,59.727 -114.517,59.742C-114.188,59.752 -113.691,59.955 -113.026,60.352L-111.248,61.436C-110.74,61.74 -110.35,61.941 -110.078,62.039C-109.808,62.131 -109.494,62.193 -109.138,62.223L-110.043,63.738C-110.169,63.717 -110.349,63.676 -110.583,63.615C-110.689,63.586 -110.76,63.569 -110.796,63.562C-110.697,63.976 -110.674,64.369 -110.725,64.743C-110.775,65.117 -110.902,65.473 -111.104,65.811C-111.459,66.407 -111.902,66.781 -112.432,66.933C-112.959,67.081 -113.47,67.008 -113.964,66.713C-114.291,66.517 -114.535,66.266 -114.696,65.957C-114.86,65.647 -114.926,65.312 -114.894,64.952C-114.862,64.586 -114.739,64.108 -114.524,63.516C-114.231,62.72 -114.06,62.15 -114.012,61.804L-114.164,61.713C-114.458,61.537 -114.711,61.485 -114.921,61.557C-115.135,61.626 -115.362,61.862 -115.603,62.266C-115.766,62.538 -115.838,62.783 -115.821,63.001C-115.806,63.216 -115.693,63.452 -115.481,63.707L-115.481,63.707ZM-113.014,62.4C-113.066,62.635 -113.173,62.992 -113.337,63.472C-113.5,63.951 -113.577,64.282 -113.568,64.465C-113.545,64.749 -113.425,64.957 -113.207,65.087C-112.993,65.215 -112.76,65.246 -112.508,65.179C-112.256,65.112 -112.057,64.956 -111.909,64.709C-111.744,64.433 -111.678,64.115 -111.71,63.756C-111.737,63.488 -111.833,63.265 -111.998,63.088C-112.105,62.97 -112.342,62.801 -112.709,62.582L-113.014,62.4ZM-112.913,68.615L-113.741,70.195L-116.788,68.597C-117.433,68.259 -117.867,68.075 -118.089,68.044C-118.316,68.011 -118.522,68.044 -118.707,68.143C-118.891,68.237 -119.039,68.392 -119.151,68.605C-119.294,68.879 -119.348,69.164 -119.312,69.46C-119.276,69.756 -119.156,70.01 -118.952,70.222C-118.746,70.43 -118.309,70.709 -117.642,71.059L-114.938,72.477L-115.766,74.057L-121.737,70.926L-120.967,69.459L-120.09,69.919C-120.492,69.044 -120.485,68.211 -120.071,67.421C-119.888,67.072 -119.657,66.787 -119.378,66.565C-119.103,66.341 -118.83,66.208 -118.558,66.164C-118.285,66.116 -118.01,66.129 -117.733,66.202C-117.454,66.272 -117.084,66.428 -116.623,66.669L-112.913,68.615ZM-117.079,76.869L-117.832,78.486L-123.943,75.641L-123.244,74.139L-122.375,74.544C-122.666,74.096 -122.829,73.74 -122.865,73.475C-122.899,73.208 -122.855,72.943 -122.734,72.682C-122.563,72.314 -122.296,72.006 -121.933,71.76L-120.757,72.917C-121.06,73.107 -121.266,73.319 -121.375,73.553C-121.48,73.779 -121.506,74.001 -121.453,74.217C-121.403,74.431 -121.237,74.66 -120.954,74.904C-120.669,75.144 -120.006,75.506 -118.967,75.99L-117.079,76.869ZM-121.023,80.455L-120.069,78.925C-119.554,79.385 -119.232,79.909 -119.104,80.497C-118.978,81.08 -119.056,81.714 -119.338,82.398C-119.785,83.482 -120.47,84.138 -121.392,84.367C-122.129,84.544 -122.93,84.454 -123.794,84.098C-124.827,83.672 -125.524,83.069 -125.884,82.289C-126.249,81.507 -126.261,80.703 -125.92,79.878C-125.538,78.95 -124.929,78.345 -124.094,78.063C-123.263,77.778 -122.22,77.908 -120.966,78.452L-122.669,82.584C-122.175,82.774 -121.739,82.798 -121.36,82.657C-120.986,82.513 -120.72,82.252 -120.564,81.873C-120.457,81.614 -120.438,81.368 -120.506,81.134C-120.575,80.9 -120.747,80.674 -121.023,80.455L-121.023,80.455ZM-122.651,79.674C-123.133,79.489 -123.545,79.463 -123.889,79.596C-124.236,79.727 -124.479,79.961 -124.617,80.298C-124.766,80.658 -124.757,81.009 -124.592,81.352C-124.427,81.695 -124.118,81.957 -123.667,82.139L-122.651,79.674ZM-127.23,83.559L-125.894,84.045L-126.311,85.191L-123.758,86.119C-123.241,86.308 -122.935,86.408 -122.84,86.419C-122.748,86.426 -122.66,86.402 -122.577,86.346C-122.492,86.287 -122.43,86.202 -122.389,86.09C-122.333,85.935 -122.305,85.691 -122.305,85.358L-120.953,85.688C-120.927,86.138 -121.005,86.61 -121.184,87.103C-121.294,87.405 -121.443,87.66 -121.63,87.866C-121.822,88.071 -122.018,88.202 -122.219,88.26C-122.423,88.312 -122.67,88.31 -122.96,88.254C-123.168,88.218 -123.568,88.093 -124.161,87.878L-126.923,86.873L-127.203,87.642L-128.539,87.156L-128.259,86.387L-129.518,85.929L-129.884,83.891L-127.647,84.705L-127.23,83.559ZM-122.507,90.281L-123.042,91.983L-126.324,90.951C-127.018,90.733 -127.478,90.628 -127.703,90.637C-127.931,90.645 -128.128,90.714 -128.293,90.844C-128.457,90.97 -128.575,91.148 -128.648,91.378C-128.74,91.673 -128.743,91.963 -128.655,92.248C-128.567,92.533 -128.404,92.761 -128.165,92.934C-127.925,93.102 -127.446,93.3 -126.727,93.525L-123.815,94.441L-124.35,96.143L-130.781,94.121L-130.284,92.541L-129.339,92.838C-129.889,92.048 -130.031,91.227 -129.763,90.376C-129.645,90 -129.468,89.679 -129.233,89.411C-129.002,89.142 -128.757,88.962 -128.498,88.87C-128.237,88.775 -127.964,88.739 -127.679,88.762C-127.392,88.781 -127,88.869 -126.504,89.025L-122.507,90.281ZM-125.236,99.489L-134.221,97.07L-133.733,95.256L-124.747,97.675L-125.236,99.489Z" style="fill:white;fill-rule:nonzero;"/>
        </g>
        <circle id="circle101" cx="141.5" cy="14.5" r="5.5" style="fill:rgb(23,35,59);"/>
    </g>
    <g id="yellow">
        <path id="path3" d="M151,262C89.79,262 40,212.21 40,151C40,89.79 89.79,40 151,40" style="fill:none;fill-rule:nonzero;stroke:rgb(117,117,117);stroke-width:26px;"/>
        <path id="path4" d="M151,40C212.21,40 262,89.79 262,151C262,212.21 212.21,262 151,262" style="fill:none;fill-rule:nonzero;stroke:rgb(231,166,13);stroke-width:26px;"/>
        <g id="Deployable-Disbursing-System" serif:id="Deployable Disbursing System" transform="matrix(-0.14919,0.988809,-0.988809,-0.14919,257.02,161.21)">
            <path d="M0.8,-6.741L2.444,-6.741L2.444,-5.821C3.032,-6.536 3.732,-6.894 4.545,-6.894C4.977,-6.894 5.351,-6.805 5.668,-6.627C5.986,-6.449 6.246,-6.181 6.449,-5.821C6.745,-6.181 7.065,-6.449 7.408,-6.627C7.75,-6.805 8.117,-6.894 8.506,-6.894C9.001,-6.894 9.42,-6.792 9.763,-6.589C10.105,-6.39 10.361,-6.096 10.531,-5.707C10.653,-5.419 10.715,-4.953 10.715,-4.31L10.715,0L8.931,0L8.931,-3.853C8.931,-4.522 8.87,-4.953 8.747,-5.148C8.582,-5.402 8.328,-5.529 7.985,-5.529C7.736,-5.529 7.501,-5.453 7.281,-5.3C7.061,-5.148 6.902,-4.924 6.805,-4.627C6.707,-4.335 6.659,-3.872 6.659,-3.237L6.659,0L4.875,0L4.875,-3.694C4.875,-4.35 4.843,-4.773 4.78,-4.964C4.716,-5.154 4.617,-5.296 4.481,-5.389C4.35,-5.482 4.17,-5.529 3.942,-5.529C3.667,-5.529 3.419,-5.455 3.199,-5.307C2.979,-5.159 2.82,-4.945 2.723,-4.666C2.63,-4.386 2.583,-3.923 2.583,-3.275L2.583,0L0.8,0L0.8,-6.741ZM-2.185,-1.852L-0.389,-1.705C-0.561,-1.037 -0.879,-0.51 -1.344,-0.127C-1.804,0.252 -2.403,0.473 -3.141,0.536C-4.309,0.635 -5.206,0.327 -5.832,-0.389C-6.327,-0.963 -6.613,-1.715 -6.693,-2.647C-6.787,-3.76 -6.57,-4.656 -6.042,-5.334C-5.514,-6.016 -4.805,-6.394 -3.915,-6.47C-2.916,-6.555 -2.099,-6.291 -1.465,-5.678C-0.832,-5.069 -0.47,-4.083 -0.379,-2.719L-4.832,-2.34C-4.774,-1.814 -4.596,-1.415 -4.297,-1.144C-3.998,-0.876 -3.644,-0.76 -3.235,-0.794C-2.957,-0.818 -2.729,-0.914 -2.553,-1.082C-2.376,-1.25 -2.253,-1.506 -2.185,-1.852ZM-2.236,-3.657C-2.293,-4.17 -2.459,-4.549 -2.734,-4.793C-3.01,-5.041 -3.33,-5.15 -3.692,-5.119C-4.08,-5.086 -4.389,-4.918 -4.617,-4.614C-4.846,-4.31 -4.938,-3.915 -4.893,-3.431L-2.236,-3.657ZM-7.788,-5.929L-7.599,-4.52L-8.807,-4.358L-8.445,-1.665C-8.372,-1.12 -8.319,-0.803 -8.286,-0.713C-8.249,-0.629 -8.186,-0.562 -8.099,-0.514C-8.007,-0.467 -7.902,-0.451 -7.785,-0.467C-7.621,-0.489 -7.392,-0.577 -7.097,-0.732L-6.762,0.619C-7.149,0.85 -7.603,1.001 -8.123,1.071C-8.441,1.114 -8.736,1.1 -9.006,1.029C-9.276,0.955 -9.484,0.842 -9.628,0.69C-9.768,0.534 -9.881,0.314 -9.966,0.031C-10.031,-0.169 -10.106,-0.582 -10.19,-1.207L-10.581,-4.12L-11.393,-4.011L-11.582,-5.42L-10.77,-5.529L-10.949,-6.856L-9.313,-8.126L-8.996,-5.767L-7.788,-5.929ZM-17.805,0.62C-17.805,0.62 -16.098,0.017 -16.098,0.017C-15.958,0.344 -15.757,0.575 -15.495,0.71C-15.233,0.842 -14.896,0.868 -14.484,0.79C-14.031,0.704 -13.706,0.556 -13.509,0.346C-13.377,0.2 -13.33,0.03 -13.367,-0.165C-13.393,-0.299 -13.455,-0.401 -13.555,-0.472C-13.658,-0.539 -13.868,-0.579 -14.185,-0.592C-15.658,-0.635 -16.608,-0.749 -17.035,-0.935C-17.627,-1.193 -17.983,-1.64 -18.104,-2.276C-18.213,-2.85 -18.078,-3.375 -17.699,-3.852C-17.32,-4.329 -16.655,-4.658 -15.703,-4.839C-14.796,-5.011 -14.095,-4.992 -13.598,-4.78C-13.101,-4.569 -12.715,-4.19 -12.439,-3.644L-14.033,-3.024C-14.153,-3.268 -14.326,-3.44 -14.551,-3.539C-14.773,-3.639 -15.066,-3.655 -15.432,-3.585C-15.894,-3.498 -16.212,-3.37 -16.387,-3.203C-16.503,-3.087 -16.547,-2.956 -16.519,-2.81C-16.495,-2.685 -16.417,-2.59 -16.284,-2.525C-16.104,-2.439 -15.528,-2.378 -14.556,-2.343C-13.581,-2.309 -12.879,-2.173 -12.45,-1.936C-12.025,-1.693 -11.76,-1.294 -11.654,-0.737C-11.538,-0.13 -11.693,0.44 -12.117,0.973C-12.541,1.506 -13.25,1.867 -14.244,2.056C-15.146,2.227 -15.896,2.18 -16.493,1.915C-17.087,1.648 -17.524,1.217 -17.805,0.62ZM-26.062,-2.241L-24.224,-2.716L-21.466,1.514L-21.139,-3.514L-19.351,-3.976L-20.032,2.901L-20.15,4.144C-20.203,4.564 -20.273,4.893 -20.361,5.13C-20.444,5.365 -20.56,5.568 -20.709,5.737C-20.852,5.91 -21.046,6.065 -21.29,6.202C-21.53,6.339 -21.814,6.449 -22.142,6.534C-22.474,6.62 -22.808,6.669 -23.146,6.682L-23.649,5.37C-23.365,5.353 -23.114,5.317 -22.897,5.26C-22.496,5.157 -22.229,4.961 -22.098,4.674C-21.966,4.39 -21.896,4.053 -21.887,3.662L-26.062,-2.241ZM-32.885,3.937L-31.209,3.185C-30.909,3.732 -30.555,4.088 -30.146,4.254C-29.733,4.419 -29.256,4.41 -28.715,4.228C-28.141,4.035 -27.751,3.769 -27.543,3.432C-27.332,3.088 -27.282,2.754 -27.391,2.43C-27.461,2.221 -27.583,2.065 -27.756,1.963C-27.926,1.855 -28.182,1.798 -28.523,1.792C-28.756,1.79 -29.275,1.822 -30.079,1.887C-31.113,1.972 -31.88,1.907 -32.382,1.691C-33.086,1.388 -33.556,0.888 -33.791,0.19C-33.942,-0.259 -33.957,-0.721 -33.835,-1.195C-33.711,-1.675 -33.444,-2.097 -33.036,-2.462C-32.623,-2.829 -32.078,-3.126 -31.4,-3.354C-30.294,-3.727 -29.38,-3.764 -28.659,-3.466C-27.934,-3.17 -27.421,-2.621 -27.12,-1.821L-28.875,-1.143C-29.104,-1.571 -29.377,-1.84 -29.696,-1.952C-30.012,-2.069 -30.421,-2.043 -30.922,-1.874C-31.44,-1.7 -31.809,-1.457 -32.03,-1.146C-32.173,-0.946 -32.206,-0.732 -32.129,-0.504C-32.059,-0.295 -31.91,-0.146 -31.684,-0.057C-31.396,0.056 -30.784,0.069 -29.849,-0.018C-28.914,-0.105 -28.203,-0.108 -27.715,-0.026C-27.225,0.05 -26.8,0.239 -26.439,0.542C-26.076,0.839 -25.8,1.267 -25.613,1.824C-25.442,2.33 -25.424,2.85 -25.556,3.386C-25.688,3.921 -25.974,4.384 -26.415,4.773C-26.857,5.159 -27.461,5.48 -28.227,5.738C-29.342,6.113 -30.284,6.145 -31.055,5.832C-31.827,5.516 -32.437,4.884 -32.885,3.937L-32.885,3.937ZM-41.573,11.533L-39.619,10.904C-39.489,11.104 -39.35,11.22 -39.201,11.249C-38.994,11.293 -38.726,11.239 -38.395,11.086C-37.973,10.891 -37.685,10.681 -37.532,10.457C-37.429,10.306 -37.385,10.12 -37.399,9.898C-37.411,9.741 -37.5,9.482 -37.667,9.12L-38.08,8.227C-38.259,9.112 -38.717,9.724 -39.454,10.065C-40.277,10.445 -41.088,10.398 -41.89,9.925C-42.52,9.549 -43.024,8.953 -43.402,8.134C-43.876,7.109 -43.993,6.211 -43.751,5.442C-43.506,4.672 -43.016,4.117 -42.283,3.778C-41.526,3.428 -40.748,3.472 -39.949,3.91L-40.346,3.051L-38.83,2.351L-36.293,7.842C-35.959,8.564 -35.77,9.132 -35.724,9.544C-35.678,9.956 -35.715,10.314 -35.836,10.617C-35.957,10.92 -36.172,11.212 -36.479,11.494C-36.783,11.775 -37.21,12.042 -37.759,12.296C-38.797,12.775 -39.615,12.936 -40.214,12.78C-40.811,12.627 -41.236,12.278 -41.488,11.732C-41.513,11.678 -41.541,11.612 -41.573,11.533L-41.573,11.533ZM-41.785,7.275C-41.485,7.924 -41.14,8.343 -40.751,8.531C-40.359,8.714 -39.978,8.72 -39.609,8.549C-39.214,8.367 -38.951,8.058 -38.82,7.625C-38.691,7.188 -38.767,6.666 -39.047,6.059C-39.34,5.425 -39.688,5.015 -40.091,4.828C-40.494,4.642 -40.896,4.641 -41.295,4.825C-41.683,5.004 -41.934,5.304 -42.047,5.725C-42.158,6.14 -42.071,6.657 -41.785,7.275L-41.785,7.275ZM-42.927,11.728L-44.488,12.591L-46.153,9.58C-46.505,8.943 -46.766,8.55 -46.935,8.402C-47.106,8.25 -47.296,8.164 -47.505,8.144C-47.711,8.123 -47.919,8.17 -48.13,8.287C-48.4,8.436 -48.602,8.644 -48.735,8.911C-48.868,9.178 -48.907,9.456 -48.854,9.746C-48.796,10.033 -48.585,10.507 -48.221,11.166L-46.744,13.838L-48.304,14.701L-51.566,8.801L-50.117,8L-49.637,8.866C-49.491,7.915 -49.028,7.223 -48.246,6.791C-47.902,6.601 -47.552,6.49 -47.197,6.458C-46.845,6.423 -46.543,6.461 -46.292,6.574C-46.037,6.685 -45.815,6.847 -45.624,7.06C-45.429,7.272 -45.206,7.606 -44.954,8.061L-42.927,11.728ZM-55.195,9.999L-56.068,8.598L-54.554,7.654L-53.681,9.055L-55.195,9.999ZM-51.145,16.495L-54.711,10.774L-53.198,9.831L-49.631,15.551L-51.145,16.495ZM-58.567,19.192L-57.252,17.947C-56.991,18.189 -56.714,18.318 -56.419,18.335C-56.126,18.348 -55.808,18.236 -55.464,17.997C-55.085,17.734 -54.848,17.467 -54.753,17.195C-54.692,17.008 -54.718,16.833 -54.831,16.67C-54.909,16.559 -55.007,16.491 -55.128,16.466C-55.249,16.447 -55.457,16.496 -55.752,16.613C-57.115,17.172 -58.029,17.454 -58.495,17.458C-59.141,17.463 -59.648,17.199 -60.017,16.667C-60.35,16.187 -60.44,15.653 -60.288,15.063C-60.136,14.473 -59.662,13.902 -58.865,13.35C-58.107,12.824 -57.458,12.557 -56.919,12.548C-56.379,12.539 -55.872,12.728 -55.397,13.115L-56.602,14.329C-56.811,14.155 -57.038,14.068 -57.285,14.069C-57.528,14.067 -57.802,14.173 -58.108,14.385C-58.494,14.653 -58.733,14.899 -58.825,15.122C-58.884,15.276 -58.871,15.413 -58.786,15.535C-58.714,15.639 -58.604,15.694 -58.456,15.7C-58.256,15.706 -57.705,15.527 -56.803,15.164C-55.898,14.799 -55.201,14.637 -54.713,14.68C-54.226,14.728 -53.821,14.985 -53.498,15.451C-53.146,15.959 -53.055,16.543 -53.226,17.202C-53.397,17.861 -53.898,18.479 -54.729,19.056C-55.484,19.579 -56.188,19.841 -56.842,19.841C-57.492,19.839 -58.067,19.623 -58.567,19.192L-58.567,19.192ZM-59.396,22.297L-60.803,23.393L-64.946,18.075L-63.639,17.057L-63.05,17.813C-63.105,17.282 -63.088,16.89 -62.999,16.639C-62.908,16.385 -62.748,16.17 -62.521,15.993C-62.201,15.743 -61.823,15.591 -61.388,15.537L-60.868,17.103C-61.225,17.134 -61.505,17.229 -61.708,17.387C-61.905,17.541 -62.029,17.726 -62.08,17.943C-62.134,18.156 -62.09,18.436 -61.949,18.782C-61.805,19.126 -61.381,19.75 -60.676,20.655L-59.396,22.297ZM-63.218,25.405L-63.883,24.647C-63.831,25.079 -63.887,25.506 -64.052,25.927C-64.215,26.345 -64.463,26.701 -64.797,26.994C-65.137,27.292 -65.508,27.486 -65.909,27.573C-66.311,27.661 -66.691,27.623 -67.049,27.459C-67.407,27.294 -67.795,26.974 -68.214,26.497L-71.028,23.29L-69.687,22.114L-67.644,24.442C-67.019,25.155 -66.611,25.571 -66.421,25.691C-66.231,25.806 -66.028,25.853 -65.814,25.834C-65.603,25.812 -65.397,25.713 -65.196,25.537C-64.967,25.336 -64.817,25.094 -64.744,24.811C-64.675,24.525 -64.687,24.26 -64.782,24.017C-64.88,23.771 -65.248,23.285 -65.884,22.56L-67.76,20.422L-66.419,19.246L-61.973,24.313L-63.218,25.405ZM-71.993,33.756L-78.613,27.216L-77.36,25.947L-74.976,28.302C-75.035,27.471 -74.799,26.787 -74.27,26.251C-73.693,25.667 -73.003,25.394 -72.201,25.431C-71.402,25.465 -70.607,25.873 -69.815,26.655C-68.996,27.464 -68.559,28.282 -68.503,29.111C-68.444,29.937 -68.689,30.628 -69.24,31.185C-69.51,31.459 -69.846,31.663 -70.246,31.797C-70.646,31.925 -71.075,31.953 -71.533,31.881L-70.829,32.577L-71.993,33.756ZM-73.25,30.024C-72.754,30.515 -72.309,30.799 -71.917,30.878C-71.362,30.991 -70.905,30.866 -70.545,30.501C-70.269,30.221 -70.153,29.866 -70.197,29.436C-70.242,28.999 -70.522,28.526 -71.036,28.018C-71.584,27.477 -72.077,27.186 -72.514,27.147C-72.954,27.105 -73.327,27.239 -73.634,27.549C-73.934,27.853 -74.065,28.223 -74.026,28.66C-73.991,29.094 -73.732,29.548 -73.25,30.024ZM-78.349,38.138L-77.387,36.604C-77.074,36.773 -76.773,36.829 -76.483,36.771C-76.196,36.711 -75.916,36.522 -75.643,36.205C-75.342,35.856 -75.179,35.538 -75.155,35.251C-75.143,35.055 -75.212,34.892 -75.362,34.762C-75.465,34.674 -75.578,34.632 -75.7,34.639C-75.822,34.651 -76.011,34.75 -76.268,34.937C-77.448,35.819 -78.263,36.321 -78.713,36.441C-79.337,36.607 -79.894,36.479 -80.384,36.056C-80.826,35.675 -81.048,35.18 -81.048,34.57C-81.048,33.961 -80.731,33.29 -80.098,32.556C-79.496,31.857 -78.934,31.436 -78.414,31.293C-77.894,31.149 -77.355,31.205 -76.799,31.461L-77.662,32.938C-77.908,32.821 -78.15,32.794 -78.388,32.857C-78.624,32.916 -78.863,33.087 -79.107,33.369C-79.413,33.725 -79.583,34.023 -79.617,34.262C-79.635,34.425 -79.587,34.555 -79.475,34.652C-79.379,34.735 -79.259,34.761 -79.114,34.729C-78.919,34.685 -78.431,34.374 -77.648,33.797C-76.863,33.217 -76.229,32.886 -75.746,32.806C-75.262,32.731 -74.806,32.879 -74.376,33.249C-73.908,33.652 -73.675,34.195 -73.675,34.876C-73.676,35.557 -74.006,36.281 -74.667,37.047C-75.267,37.742 -75.883,38.172 -76.516,38.335C-77.146,38.496 -77.757,38.43 -78.349,38.138L-78.349,38.138ZM-84.6,36.872L-85.9,35.856L-84.802,34.451L-83.502,35.467L-84.6,36.872ZM-78.567,41.586L-83.88,37.435L-82.781,36.03L-77.469,40.18L-78.567,41.586ZM-91.525,43.746L-89.572,40.921C-89.132,40.284 -88.747,39.832 -88.419,39.565C-87.976,39.207 -87.475,38.985 -86.916,38.898C-86.357,38.811 -85.775,38.854 -85.168,39.026C-84.565,39.196 -83.905,39.529 -83.188,40.024C-82.558,40.46 -82.069,40.913 -81.722,41.385C-81.297,41.962 -81.035,42.547 -80.936,43.14C-80.86,43.588 -80.906,44.091 -81.075,44.648C-81.203,45.064 -81.465,45.557 -81.859,46.128L-83.869,49.037L-91.525,43.746ZM-89.161,43.095L-84.091,46.6L-83.293,45.446C-82.995,45.014 -82.804,44.686 -82.72,44.46C-82.61,44.166 -82.573,43.886 -82.609,43.619C-82.644,43.348 -82.795,43.043 -83.064,42.703C-83.337,42.36 -83.769,41.984 -84.361,41.575C-84.952,41.166 -85.443,40.904 -85.832,40.79C-86.221,40.675 -86.569,40.651 -86.876,40.716C-87.184,40.781 -87.469,40.937 -87.731,41.182C-87.929,41.365 -88.246,41.771 -88.681,42.401L-89.161,43.095ZM-89.015,53.568L-87.904,52.15C-87.44,52.662 -87.177,53.217 -87.112,53.816C-87.049,54.409 -87.195,55.031 -87.549,55.681C-88.109,56.711 -88.86,57.29 -89.802,57.418C-90.553,57.515 -91.34,57.34 -92.161,56.893C-93.143,56.359 -93.771,55.685 -94.045,54.871C-94.324,54.055 -94.25,53.254 -93.823,52.47C-93.344,51.589 -92.674,51.053 -91.813,50.861C-90.956,50.667 -89.933,50.908 -88.745,51.584L-90.88,55.509C-90.41,55.751 -89.979,55.821 -89.587,55.721C-89.199,55.619 -88.907,55.388 -88.711,55.027C-88.577,54.782 -88.532,54.539 -88.575,54.299C-88.618,54.059 -88.764,53.816 -89.015,53.568ZM-90.55,52.618C-91.01,52.382 -91.417,52.312 -91.773,52.408C-92.132,52.501 -92.399,52.708 -92.573,53.027C-92.759,53.369 -92.788,53.72 -92.66,54.078C-92.532,54.437 -92.254,54.73 -91.824,54.959L-90.55,52.618ZM-90.466,61.06L-98.847,57.014L-98.071,55.408L-89.691,59.453L-90.466,61.06ZM-93.576,68.202L-102.155,64.598L-101.464,62.953L-98.374,64.251C-98.739,63.502 -98.775,62.78 -98.483,62.085C-98.165,61.328 -97.627,60.818 -96.869,60.553C-96.114,60.287 -95.224,60.37 -94.198,60.801C-93.137,61.247 -92.426,61.844 -92.066,62.592C-91.704,63.336 -91.674,64.069 -91.978,64.791C-92.127,65.146 -92.362,65.46 -92.683,65.734C-93.007,66.002 -93.395,66.187 -93.847,66.291L-92.934,66.675L-93.576,68.202ZM-96.132,65.207C-95.488,65.478 -94.97,65.576 -94.576,65.503C-94.02,65.402 -93.642,65.115 -93.444,64.643C-93.291,64.28 -93.316,63.907 -93.518,63.524C-93.722,63.136 -94.157,62.801 -94.824,62.521C-95.534,62.222 -96.1,62.136 -96.52,62.263C-96.944,62.388 -97.241,62.651 -97.409,63.053C-97.575,63.447 -97.559,63.839 -97.36,64.23C-97.166,64.619 -96.756,64.945 -96.132,65.207L-96.132,65.207ZM-99.824,71.886L-100.624,73.323C-101.182,72.94 -101.537,72.488 -101.69,71.966C-101.842,71.444 -101.777,70.769 -101.493,69.94C-101.236,69.187 -100.954,68.658 -100.648,68.351C-100.346,68.043 -100.031,67.862 -99.704,67.808C-99.38,67.749 -98.851,67.845 -98.119,68.096L-96.155,68.787C-95.594,68.979 -95.171,69.095 -94.885,69.134C-94.601,69.169 -94.282,69.164 -93.927,69.12L-94.498,70.79C-94.625,70.795 -94.81,70.792 -95.052,70.781C-95.162,70.775 -95.235,70.772 -95.271,70.774C-95.089,71.158 -94.984,71.538 -94.957,71.914C-94.929,72.29 -94.978,72.665 -95.106,73.037C-95.33,73.694 -95.686,74.151 -96.172,74.41C-96.657,74.664 -97.172,74.699 -97.717,74.512C-98.077,74.389 -98.368,74.193 -98.59,73.925C-98.815,73.656 -98.949,73.342 -98.992,72.983C-99.037,72.618 -99.016,72.125 -98.928,71.502C-98.806,70.662 -98.758,70.069 -98.782,69.72L-98.95,69.663C-99.274,69.552 -99.532,69.553 -99.723,69.667C-99.918,69.779 -100.091,70.058 -100.243,70.502C-100.346,70.802 -100.366,71.057 -100.303,71.266C-100.245,71.474 -100.085,71.681 -99.824,71.886L-99.824,71.886ZM-97.683,70.096C-97.684,70.337 -97.715,70.709 -97.776,71.212C-97.836,71.714 -97.842,72.054 -97.795,72.231C-97.715,72.505 -97.554,72.683 -97.314,72.765C-97.078,72.846 -96.843,72.828 -96.611,72.71C-96.378,72.593 -96.216,72.398 -96.123,72.126C-96.018,71.822 -96.019,71.497 -96.125,71.152C-96.207,70.896 -96.348,70.698 -96.546,70.559C-96.675,70.465 -96.942,70.35 -97.346,70.211L-97.683,70.096ZM-104.395,80.36L-103.899,78.528L-98.858,78.222L-103.066,75.452L-102.583,73.669L-96.944,77.662L-95.921,78.38C-95.582,78.634 -95.332,78.857 -95.169,79.05C-95.005,79.239 -94.887,79.44 -94.813,79.653C-94.734,79.863 -94.695,80.108 -94.696,80.388C-94.696,80.664 -94.741,80.966 -94.829,81.293C-94.919,81.623 -95.041,81.939 -95.197,82.239L-96.587,82.027C-96.46,81.772 -96.368,81.536 -96.309,81.319C-96.201,80.919 -96.239,80.591 -96.424,80.335C-96.605,80.08 -96.864,79.852 -97.199,79.651L-104.395,80.36ZM-102.697,88.53C-103.278,88.415 -103.812,88.161 -104.3,87.767C-104.787,87.373 -105.122,86.886 -105.305,86.306C-105.487,85.722 -105.514,85.106 -105.386,84.459C-105.188,83.458 -104.7,82.703 -103.922,82.192C-103.148,81.681 -102.264,81.524 -101.272,81.72C-100.272,81.918 -99.506,82.406 -98.974,83.184C-98.445,83.957 -98.278,84.834 -98.471,85.814C-98.591,86.42 -98.843,86.972 -99.226,87.47C-99.608,87.963 -100.092,88.301 -100.675,88.483C-101.263,88.665 -101.937,88.68 -102.697,88.53L-102.697,88.53ZM-102.249,86.755C-101.593,86.885 -101.06,86.829 -100.65,86.586C-100.239,86.344 -99.989,85.994 -99.899,85.538C-99.808,85.081 -99.907,84.665 -100.195,84.288C-100.482,83.908 -100.958,83.652 -101.622,83.521C-102.27,83.393 -102.799,83.45 -103.209,83.692C-103.618,83.93 -103.868,84.278 -103.959,84.735C-104.049,85.191 -103.95,85.61 -103.663,85.99C-103.376,86.37 -102.905,86.625 -102.249,86.755ZM-99.684,92.109L-108.895,90.782L-108.641,89.017L-99.43,90.344L-99.684,92.109ZM-107.196,99.211L-107.045,97.555L-106.059,97.645C-106.377,97.399 -106.624,97.083 -106.802,96.698C-106.979,96.312 -107.048,95.896 -107.007,95.449C-106.936,94.669 -106.571,94.035 -105.91,93.547C-105.25,93.059 -104.374,92.864 -103.282,92.964C-102.161,93.065 -101.313,93.419 -100.74,94.023C-100.17,94.627 -99.92,95.319 -99.991,96.099C-100.025,96.47 -100.129,96.8 -100.304,97.09C-100.479,97.376 -100.761,97.669 -101.149,97.97L-97.767,98.277L-97.928,100.053L-107.196,99.211ZM-103.793,97.748C-103.039,97.817 -102.467,97.718 -102.077,97.452C-101.692,97.185 -101.48,96.837 -101.44,96.407C-101.403,95.994 -101.536,95.636 -101.84,95.332C-102.148,95.028 -102.679,94.841 -103.434,94.773C-104.137,94.709 -104.673,94.803 -105.04,95.054C-105.407,95.305 -105.609,95.64 -105.647,96.057C-105.687,96.491 -105.551,96.866 -105.24,97.184C-104.933,97.501 -104.451,97.689 -103.793,97.748ZM-102.732,102.734L-102.395,100.964C-101.749,101.206 -101.259,101.579 -100.927,102.081C-100.599,102.579 -100.444,103.199 -100.46,103.939C-100.485,105.111 -100.887,105.97 -101.665,106.516C-102.288,106.947 -103.067,107.152 -104.002,107.132C-105.119,107.108 -105.986,106.797 -106.604,106.2C-107.226,105.602 -107.527,104.857 -107.508,103.964C-107.486,102.962 -107.137,102.178 -106.46,101.612C-105.787,101.047 -104.768,100.792 -103.402,100.847L-103.499,105.315C-102.97,105.313 -102.554,105.178 -102.252,104.91C-101.954,104.641 -101.801,104.302 -101.792,103.891C-101.786,103.612 -101.857,103.376 -102.005,103.182C-102.153,102.988 -102.396,102.839 -102.732,102.734L-102.732,102.734ZM-104.532,102.594C-105.048,102.595 -105.443,102.72 -105.715,102.968C-105.991,103.216 -106.133,103.522 -106.141,103.886C-106.149,104.275 -106.015,104.6 -105.737,104.86C-105.459,105.12 -105.076,105.253 -104.59,105.259L-104.532,102.594ZM-109.573,116.197L-109.756,112.768C-109.798,111.995 -109.77,111.402 -109.673,110.99C-109.542,110.437 -109.282,109.954 -108.893,109.544C-108.503,109.133 -108.016,108.81 -107.431,108.576C-106.851,108.341 -106.125,108.201 -105.254,108.154C-104.49,108.113 -103.825,108.173 -103.262,108.334C-102.573,108.53 -102.008,108.832 -101.567,109.241C-101.232,109.549 -100.962,109.976 -100.755,110.52C-100.601,110.927 -100.506,111.477 -100.469,112.17L-100.281,115.701L-109.573,116.197ZM-108.101,114.237L-101.946,113.908L-102.021,112.507C-102.049,111.983 -102.099,111.607 -102.171,111.377C-102.263,111.077 -102.405,110.833 -102.598,110.644C-102.79,110.451 -103.097,110.302 -103.518,110.197C-103.943,110.093 -104.515,110.06 -105.233,110.098C-105.952,110.137 -106.5,110.229 -106.877,110.377C-107.255,110.524 -107.546,110.718 -107.749,110.957C-107.952,111.197 -108.083,111.494 -108.14,111.849C-108.185,112.114 -108.187,112.629 -108.146,113.394L-108.101,114.237Z" style="fill-rule:nonzero;"/>
        </g>
        <circle id="circle102" cx="141.5" cy="41.5" r="5.5" style="fill:rgb(231,166,13);"/>
    </g>
    <g id="green">
        <path id="path6" d="M151,67C197.32,67 235,104.68 235,151C235,197.32 197.32,235 151,235C127.84,235 106.84,225.58 91.63,210.37" style="fill:none;fill-rule:nonzero;stroke:rgb(101,124,92);stroke-width:26px;"/>
        <g id="Automated-Disbursing-System" serif:id="Automated Disbursing System" transform="matrix(-0.606544,0.79505,-0.79505,-0.606544,217.62,194.44)">
            <path d="M0.8,-6.741L2.444,-6.741L2.444,-5.821C3.032,-6.536 3.732,-6.894 4.545,-6.894C4.977,-6.894 5.351,-6.805 5.668,-6.627C5.986,-6.449 6.246,-6.181 6.449,-5.821C6.745,-6.181 7.065,-6.449 7.408,-6.627C7.75,-6.805 8.117,-6.894 8.506,-6.894C9.001,-6.894 9.42,-6.792 9.763,-6.589C10.105,-6.39 10.361,-6.096 10.531,-5.707C10.653,-5.419 10.715,-4.953 10.715,-4.31L10.715,0L8.931,0L8.931,-3.853C8.931,-4.522 8.87,-4.953 8.747,-5.148C8.582,-5.402 8.328,-5.529 7.985,-5.529C7.736,-5.529 7.501,-5.453 7.281,-5.3C7.061,-5.148 6.902,-4.924 6.805,-4.627C6.707,-4.335 6.659,-3.872 6.659,-3.237L6.659,0L4.875,0L4.875,-3.694C4.875,-4.35 4.843,-4.773 4.78,-4.964C4.716,-5.154 4.617,-5.296 4.481,-5.389C4.35,-5.482 4.17,-5.529 3.942,-5.529C3.667,-5.529 3.419,-5.455 3.199,-5.307C2.979,-5.159 2.82,-4.945 2.723,-4.666C2.63,-4.386 2.583,-3.923 2.583,-3.275L2.583,0L0.8,0L0.8,-6.741ZM-2.094,-1.775L-0.295,-1.676C-0.45,-1.003 -0.754,-0.469 -1.208,-0.073C-1.658,0.318 -2.251,0.555 -2.987,0.637C-4.152,0.767 -5.057,0.483 -5.701,-0.216C-6.211,-0.776 -6.518,-1.521 -6.622,-2.45C-6.746,-3.561 -6.553,-4.462 -6.043,-5.153C-5.533,-5.849 -4.834,-6.246 -3.947,-6.346C-2.95,-6.457 -2.127,-6.215 -1.477,-5.619C-0.827,-5.027 -0.439,-4.051 -0.312,-2.69L-4.753,-2.193C-4.682,-1.669 -4.493,-1.275 -4.187,-1.011C-3.881,-0.751 -3.524,-0.644 -3.116,-0.69C-2.839,-0.721 -2.614,-0.823 -2.441,-0.995C-2.269,-1.168 -2.153,-1.428 -2.094,-1.775ZM-2.194,-3.578C-2.264,-4.09 -2.44,-4.464 -2.722,-4.7C-3.004,-4.941 -3.326,-5.042 -3.688,-5.001C-4.075,-4.958 -4.379,-4.781 -4.599,-4.471C-4.82,-4.161 -4.902,-3.765 -4.843,-3.282L-2.194,-3.578ZM-7.847,-5.682L-7.592,-4.283L-8.791,-4.065L-8.305,-1.392C-8.206,-0.851 -8.138,-0.536 -8.101,-0.448C-8.06,-0.366 -7.994,-0.302 -7.905,-0.258C-7.811,-0.215 -7.706,-0.204 -7.589,-0.226C-7.427,-0.255 -7.202,-0.354 -6.914,-0.523L-6.516,0.811C-6.892,1.061 -7.339,1.232 -7.855,1.326C-8.171,1.384 -8.466,1.384 -8.739,1.326C-9.012,1.264 -9.225,1.161 -9.376,1.016C-9.524,0.867 -9.646,0.652 -9.745,0.373C-9.819,0.176 -9.913,-0.232 -10.026,-0.853L-10.552,-3.744L-11.358,-3.598L-11.613,-4.996L-10.807,-5.143L-11.047,-6.461L-9.472,-7.806L-9.046,-5.464L-7.847,-5.682ZM-17.511,1.409L-15.843,0.703C-15.684,1.02 -15.469,1.239 -15.198,1.357C-14.929,1.472 -14.591,1.478 -14.185,1.375C-13.738,1.261 -13.423,1.093 -13.239,0.872C-13.117,0.718 -13.08,0.545 -13.129,0.352C-13.163,0.221 -13.231,0.123 -13.335,0.058C-13.442,-0.003 -13.654,-0.029 -13.971,-0.023C-15.444,0.025 -16.399,-0.031 -16.837,-0.19C-17.444,-0.411 -17.827,-0.836 -17.987,-1.463C-18.131,-2.029 -18.029,-2.561 -17.68,-3.061C-17.331,-3.56 -16.687,-3.929 -15.748,-4.169C-14.854,-4.396 -14.152,-4.42 -13.644,-4.24C-13.135,-4.059 -12.726,-3.705 -12.417,-3.177L-13.97,-2.46C-14.104,-2.696 -14.287,-2.857 -14.519,-2.942C-14.746,-3.029 -15.04,-3.026 -15.401,-2.934C-15.856,-2.818 -16.166,-2.671 -16.33,-2.494C-16.438,-2.37 -16.474,-2.237 -16.438,-2.093C-16.406,-1.97 -16.322,-1.88 -16.186,-1.823C-16,-1.748 -15.422,-1.723 -14.45,-1.748C-13.474,-1.774 -12.765,-1.682 -12.323,-1.471C-11.884,-1.255 -11.594,-0.873 -11.454,-0.323C-11.301,0.275 -11.421,0.854 -11.811,1.412C-12.202,1.97 -12.887,2.374 -13.867,2.623C-14.757,2.85 -15.508,2.849 -16.121,2.621C-16.73,2.392 -17.193,1.988 -17.511,1.409L-17.511,1.409ZM-25.903,-0.778L-24.112,-1.404L-21.011,2.583L-21.103,-2.455L-19.359,-3.064L-19.468,3.846L-19.482,5.095C-19.5,5.518 -19.543,5.851 -19.61,6.094C-19.674,6.336 -19.773,6.547 -19.907,6.729C-20.035,6.912 -20.215,7.083 -20.447,7.24C-20.675,7.396 -20.949,7.53 -21.269,7.641C-21.592,7.754 -21.922,7.831 -22.257,7.872L-22.867,6.606C-22.586,6.566 -22.339,6.509 -22.127,6.435C-21.735,6.298 -21.486,6.081 -21.379,5.784C-21.271,5.491 -21.229,5.149 -21.253,4.758L-25.903,-0.778ZM-32.07,6.088L-30.483,5.162C-30.127,5.673 -29.737,5.99 -29.313,6.112C-28.885,6.231 -28.412,6.172 -27.893,5.933C-27.343,5.68 -26.983,5.375 -26.812,5.017C-26.639,4.653 -26.625,4.316 -26.768,4.004C-26.86,3.804 -26.997,3.663 -27.18,3.579C-27.361,3.49 -27.621,3.461 -27.961,3.491C-28.193,3.514 -28.705,3.601 -29.498,3.751C-30.517,3.945 -31.287,3.962 -31.808,3.801C-32.541,3.575 -33.062,3.127 -33.37,2.458C-33.568,2.028 -33.632,1.57 -33.561,1.086C-33.488,0.596 -33.268,0.148 -32.901,-0.259C-32.53,-0.667 -32.02,-1.021 -31.37,-1.32C-30.309,-1.808 -29.404,-1.943 -28.656,-1.723C-27.904,-1.506 -27.335,-1.015 -26.951,-0.251L-28.623,0.61C-28.896,0.209 -29.197,-0.03 -29.526,-0.107C-29.853,-0.189 -30.257,-0.12 -30.737,0.101C-31.233,0.329 -31.574,0.61 -31.761,0.943C-31.882,1.156 -31.892,1.373 -31.791,1.592C-31.699,1.792 -31.536,1.924 -31.301,1.988C-31.003,2.07 -30.393,2.018 -29.472,1.832C-28.552,1.646 -27.845,1.567 -27.352,1.597C-26.856,1.62 -26.413,1.763 -26.022,2.026C-25.629,2.283 -25.31,2.679 -25.064,3.213C-24.841,3.697 -24.767,4.213 -24.841,4.76C-24.916,5.306 -25.151,5.797 -25.548,6.231C-25.946,6.661 -26.512,7.045 -27.247,7.383C-28.315,7.875 -29.249,8.006 -30.048,7.778C-30.849,7.545 -31.523,6.982 -32.07,6.088L-32.07,6.088ZM-39.604,14.759L-37.758,13.861C-37.601,14.041 -37.447,14.136 -37.295,14.144C-37.084,14.158 -36.826,14.067 -36.52,13.869C-36.129,13.617 -35.874,13.368 -35.755,13.125C-35.674,12.962 -35.656,12.771 -35.701,12.553C-35.735,12.399 -35.86,12.155 -36.076,11.821L-36.61,10.995C-36.663,11.895 -37.03,12.566 -37.713,13.007C-38.473,13.499 -39.283,13.567 -40.143,13.211C-40.82,12.928 -41.403,12.408 -41.893,11.651C-42.506,10.702 -42.747,9.83 -42.616,9.035C-42.482,8.237 -42.075,7.619 -41.396,7.18C-40.696,6.728 -39.92,6.662 -39.068,6.982L-39.581,6.188L-38.179,5.282L-34.895,10.362C-34.463,11.03 -34.195,11.565 -34.092,11.967C-33.988,12.369 -33.975,12.728 -34.053,13.045C-34.13,13.362 -34.301,13.682 -34.566,14.004C-34.828,14.325 -35.213,14.649 -35.721,14.978C-36.68,15.598 -37.468,15.873 -38.083,15.802C-38.696,15.734 -39.166,15.448 -39.492,14.944C-39.524,14.894 -39.561,14.832 -39.604,14.759L-39.604,14.759ZM-40.412,10.573C-40.024,11.173 -39.624,11.539 -39.211,11.671C-38.798,11.796 -38.42,11.749 -38.079,11.528C-37.713,11.292 -37.496,10.95 -37.427,10.502C-37.361,10.051 -37.509,9.545 -37.872,8.984C-38.251,8.397 -38.654,8.04 -39.079,7.912C-39.504,7.784 -39.902,7.839 -40.272,8.078C-40.631,8.31 -40.837,8.642 -40.89,9.075C-40.941,9.501 -40.782,10.001 -40.412,10.573ZM-40.837,15.099L-42.237,16.204L-44.368,13.503C-44.819,12.932 -45.14,12.586 -45.331,12.468C-45.524,12.345 -45.726,12.291 -45.935,12.306C-46.142,12.318 -46.34,12.398 -46.529,12.548C-46.771,12.739 -46.937,12.977 -47.025,13.262C-47.112,13.547 -47.106,13.828 -47.006,14.105C-46.903,14.379 -46.618,14.812 -46.152,15.403L-44.261,17.8L-45.661,18.905L-49.836,13.613L-48.536,12.586L-47.922,13.364C-47.932,12.402 -47.587,11.644 -46.886,11.091C-46.577,10.847 -46.25,10.681 -45.905,10.592C-45.563,10.5 -45.259,10.489 -44.993,10.559C-44.724,10.627 -44.478,10.751 -44.255,10.931C-44.029,11.109 -43.754,11.402 -43.432,11.81L-40.837,15.099ZM-53.22,15.45L-54.327,14.227L-53.005,13.029L-51.898,14.253L-53.22,15.45ZM-48.081,21.125L-52.606,16.128L-51.284,14.93L-46.759,19.927L-48.081,21.125ZM-54.809,25.139L-53.759,23.664C-53.457,23.851 -53.159,23.924 -52.866,23.884C-52.577,23.841 -52.286,23.669 -51.994,23.368C-51.673,23.037 -51.492,22.729 -51.452,22.444C-51.428,22.249 -51.487,22.083 -51.63,21.944C-51.727,21.85 -51.837,21.802 -51.96,21.801C-52.083,21.806 -52.277,21.894 -52.544,22.066C-53.774,22.877 -54.617,23.33 -55.073,23.424C-55.706,23.553 -56.254,23.392 -56.719,22.942C-57.138,22.535 -57.33,22.028 -57.294,21.42C-57.258,20.812 -56.903,20.16 -56.229,19.464C-55.586,18.802 -55.001,18.415 -54.473,18.302C-53.945,18.189 -53.411,18.277 -52.871,18.565L-53.819,19.989C-54.057,19.858 -54.297,19.816 -54.539,19.865C-54.778,19.91 -55.027,20.067 -55.286,20.334C-55.613,20.671 -55.8,20.958 -55.848,21.196C-55.875,21.358 -55.836,21.49 -55.729,21.593C-55.638,21.682 -55.52,21.714 -55.373,21.691C-55.176,21.658 -54.67,21.377 -53.855,20.847C-53.037,20.313 -52.385,20.021 -51.898,19.968C-51.411,19.922 -50.964,20.096 -50.557,20.491C-50.113,20.921 -49.912,21.477 -49.952,22.157C-49.993,22.836 -50.365,23.539 -51.07,24.265C-51.709,24.924 -52.349,25.317 -52.991,25.444C-53.629,25.567 -54.236,25.466 -54.809,25.139L-54.809,25.139ZM-54.926,28.316L-56.071,29.684L-61.241,25.358L-60.178,24.088L-59.443,24.703C-59.608,24.195 -59.674,23.809 -59.641,23.544C-59.604,23.277 -59.494,23.033 -59.309,22.812C-59.048,22.5 -58.711,22.272 -58.297,22.127L-57.459,23.549C-57.801,23.654 -58.055,23.806 -58.221,24.004C-58.381,24.195 -58.463,24.402 -58.467,24.625C-58.475,24.845 -58.373,25.109 -58.163,25.418C-57.949,25.724 -57.403,26.244 -56.523,26.98L-54.926,28.316ZM-57.939,32.127L-58.761,31.542C-58.61,31.95 -58.567,32.378 -58.631,32.826C-58.693,33.271 -58.853,33.674 -59.11,34.036C-59.373,34.405 -59.689,34.678 -60.06,34.856C-60.431,35.033 -60.809,35.083 -61.195,35.006C-61.582,34.928 -62.033,34.706 -62.551,34.337L-66.026,31.864L-64.992,30.411L-62.468,32.207C-61.696,32.757 -61.203,33.068 -60.99,33.142C-60.779,33.209 -60.571,33.209 -60.367,33.141C-60.166,33.071 -59.989,32.927 -59.834,32.71C-59.657,32.462 -59.566,32.192 -59.561,31.9C-59.559,31.605 -59.632,31.35 -59.781,31.135C-59.933,30.918 -60.402,30.53 -61.188,29.97L-63.505,28.322L-62.47,26.868L-56.978,30.777L-57.939,32.127ZM-64.353,42.265L-72.414,37.615L-71.522,36.07L-68.619,37.744C-68.887,36.955 -68.832,36.234 -68.456,35.581C-68.046,34.87 -67.448,34.431 -66.663,34.264C-65.881,34.094 -65.008,34.288 -64.044,34.844C-63.047,35.419 -62.416,36.1 -62.152,36.888C-61.886,37.671 -61.949,38.402 -62.34,39.08C-62.533,39.414 -62.805,39.696 -63.159,39.927C-63.513,40.153 -63.921,40.288 -64.383,40.335L-63.525,40.83L-64.353,42.265ZM-66.514,38.973C-65.909,39.322 -65.407,39.485 -65.008,39.461C-64.443,39.431 -64.032,39.194 -63.777,38.75C-63.58,38.409 -63.558,38.036 -63.71,37.631C-63.863,37.22 -64.254,36.833 -64.88,36.472C-65.548,36.087 -66.098,35.931 -66.53,36.004C-66.967,36.074 -67.294,36.298 -67.512,36.676C-67.725,37.046 -67.758,37.437 -67.61,37.85C-67.466,38.261 -67.101,38.635 -66.514,38.973L-66.514,38.973ZM-69.231,48.121L-68.728,46.382C-68.381,46.458 -68.076,46.429 -67.814,46.294C-67.555,46.157 -67.337,45.898 -67.162,45.518C-66.968,45.099 -66.9,44.749 -66.956,44.467C-66.998,44.275 -67.109,44.137 -67.289,44.054C-67.412,43.997 -67.532,43.988 -67.648,44.028C-67.762,44.073 -67.917,44.221 -68.111,44.471C-69.003,45.644 -69.648,46.351 -70.048,46.59C-70.602,46.922 -71.173,46.952 -71.761,46.68C-72.291,46.435 -72.64,46.02 -72.808,45.435C-72.975,44.849 -72.856,44.116 -72.45,43.237C-72.063,42.399 -71.639,41.84 -71.178,41.559C-70.717,41.277 -70.184,41.183 -69.579,41.276L-70.002,42.934C-70.271,42.889 -70.511,42.93 -70.723,43.055C-70.933,43.177 -71.116,43.407 -71.272,43.745C-71.469,44.172 -71.551,44.505 -71.517,44.744C-71.489,44.906 -71.408,45.018 -71.273,45.08C-71.158,45.134 -71.035,45.125 -70.905,45.055C-70.73,44.958 -70.346,44.525 -69.752,43.755C-69.157,42.981 -68.639,42.489 -68.196,42.278C-67.752,42.073 -67.273,42.09 -66.758,42.328C-66.197,42.587 -65.823,43.044 -65.636,43.699C-65.449,44.354 -65.568,45.14 -65.992,46.058C-66.377,46.892 -66.851,47.475 -67.414,47.807C-67.976,48.135 -68.582,48.239 -69.231,48.121L-69.231,48.121ZM-75.546,48.703L-77.086,48.109L-76.444,46.444L-74.904,47.038L-75.546,48.703ZM-68.403,51.457L-74.693,49.031L-74.051,47.367L-67.761,49.793L-68.403,51.457ZM-80.066,57.356L-79.08,54.066C-78.858,53.324 -78.631,52.776 -78.401,52.421C-78.09,51.944 -77.683,51.578 -77.178,51.323C-76.673,51.068 -76.105,50.929 -75.475,50.906C-74.849,50.881 -74.119,50.994 -73.284,51.245C-72.55,51.465 -71.945,51.746 -71.469,52.087C-70.887,52.505 -70.458,52.98 -70.18,53.514C-69.97,53.917 -69.859,54.41 -69.848,54.992C-69.842,55.427 -69.938,55.977 -70.137,56.641L-71.153,60.028L-80.066,57.356ZM-78.019,56.008L-72.115,57.778L-71.712,56.434C-71.561,55.932 -71.481,55.56 -71.471,55.321C-71.456,55.007 -71.508,54.729 -71.625,54.486C-71.741,54.239 -71.979,53.995 -72.34,53.754C-72.705,53.513 -73.232,53.288 -73.921,53.082C-74.61,52.875 -75.157,52.777 -75.562,52.788C-75.968,52.799 -76.307,52.883 -76.579,53.04C-76.851,53.197 -77.074,53.433 -77.248,53.747C-77.38,53.982 -77.556,54.466 -77.776,55.199L-78.019,56.008ZM-72.136,64.655L-72.377,66.294L-73.356,66.15C-73.015,66.478 -72.778,66.842 -72.644,67.242C-72.514,67.638 -72.477,68.024 -72.532,68.401C-72.645,69.167 -73.049,69.779 -73.745,70.237C-74.445,70.691 -75.347,70.836 -76.453,70.673C-77.583,70.507 -78.402,70.115 -78.91,69.497C-79.422,68.879 -79.619,68.164 -79.5,67.351C-79.39,66.606 -78.985,66.007 -78.286,65.554L-81.602,65.066L-81.342,63.302L-72.136,64.655ZM-76.307,68.854C-75.595,68.958 -75.066,68.935 -74.719,68.785C-74.216,68.568 -73.928,68.204 -73.853,67.694C-73.793,67.288 -73.914,66.917 -74.215,66.582C-74.521,66.246 -75.017,66.028 -75.704,65.927C-76.47,65.814 -77.041,65.871 -77.416,66.098C-77.796,66.325 -78.018,66.654 -78.081,67.085C-78.143,67.504 -78.027,67.88 -77.734,68.214C-77.444,68.543 -76.969,68.756 -76.307,68.854L-76.307,68.854ZM-75.388,73.539L-74.99,71.782C-74.352,72.047 -73.876,72.436 -73.562,72.95C-73.252,73.459 -73.118,74.083 -73.16,74.823C-73.226,75.993 -73.658,76.837 -74.454,77.356C-75.092,77.765 -75.878,77.943 -76.812,77.89C-77.927,77.826 -78.783,77.485 -79.379,76.867C-79.98,76.247 -80.255,75.492 -80.204,74.601C-80.147,73.599 -79.771,72.828 -79.075,72.287C-78.383,71.746 -77.355,71.526 -75.992,71.629L-76.245,76.091C-75.716,76.108 -75.296,75.988 -74.985,75.73C-74.678,75.472 -74.513,75.138 -74.489,74.728C-74.474,74.449 -74.536,74.211 -74.678,74.012C-74.819,73.813 -75.056,73.655 -75.388,73.539ZM-77.182,73.335C-77.699,73.319 -78.097,73.43 -78.378,73.668C-78.662,73.906 -78.815,74.207 -78.836,74.57C-78.858,74.959 -78.734,75.288 -78.466,75.558C-78.197,75.827 -77.82,75.974 -77.334,75.997L-77.182,73.335ZM-80.197,78.547L-78.775,78.53L-78.761,79.749L-76.044,79.718C-75.494,79.711 -75.173,79.697 -75.08,79.675C-74.991,79.648 -74.918,79.595 -74.86,79.513C-74.801,79.428 -74.773,79.326 -74.774,79.208C-74.776,79.043 -74.836,78.804 -74.954,78.493L-73.572,78.324C-73.389,78.737 -73.295,79.206 -73.289,79.73C-73.285,80.052 -73.335,80.342 -73.438,80.602C-73.545,80.861 -73.682,81.053 -73.85,81.178C-74.022,81.298 -74.254,81.383 -74.545,81.433C-74.752,81.474 -75.171,81.498 -75.802,81.505L-78.74,81.539L-78.731,82.358L-80.153,82.374L-80.162,81.555L-81.501,81.571L-82.563,79.793L-80.183,79.765L-80.197,78.547ZM-77.748,87.513L-77.909,89.15C-78.574,89.021 -79.079,88.747 -79.427,88.329C-79.775,87.912 -79.984,87.266 -80.054,86.393C-80.118,85.6 -80.07,85.002 -79.911,84.598C-79.757,84.195 -79.54,83.904 -79.262,83.725C-78.988,83.541 -78.465,83.419 -77.693,83.357L-75.616,83.209C-75.026,83.162 -74.591,83.099 -74.313,83.022C-74.039,82.94 -73.749,82.809 -73.441,82.627L-73.299,84.386C-73.414,84.442 -73.584,84.513 -73.811,84.599C-73.914,84.637 -73.982,84.664 -74.014,84.679C-73.695,84.959 -73.447,85.266 -73.272,85.6C-73.096,85.934 -72.993,86.297 -72.962,86.689C-72.906,87.381 -73.05,87.943 -73.393,88.373C-73.737,88.8 -74.195,89.036 -74.769,89.083C-75.149,89.113 -75.493,89.049 -75.803,88.892C-76.117,88.734 -76.365,88.5 -76.547,88.187C-76.734,87.871 -76.911,87.41 -77.079,86.804C-77.302,85.985 -77.493,85.421 -77.654,85.111L-77.831,85.125C-78.173,85.153 -78.409,85.257 -78.539,85.437C-78.673,85.618 -78.721,85.942 -78.683,86.41C-78.658,86.727 -78.575,86.968 -78.434,87.135C-78.298,87.303 -78.069,87.429 -77.748,87.513ZM-76.496,85.018C-76.402,85.24 -76.282,85.593 -76.137,86.078C-75.992,86.563 -75.863,86.878 -75.75,87.022C-75.566,87.24 -75.348,87.34 -75.095,87.319C-74.846,87.299 -74.639,87.189 -74.472,86.989C-74.306,86.789 -74.234,86.545 -74.257,86.259C-74.283,85.938 -74.413,85.641 -74.647,85.367C-74.825,85.164 -75.032,85.039 -75.269,84.99C-75.425,84.956 -75.716,84.956 -76.142,84.99L-76.496,85.018ZM-77.642,100.781L-77.955,99.167L-77.052,98.992C-77.866,98.551 -78.351,97.932 -78.506,97.134C-78.589,96.71 -78.573,96.326 -78.459,95.98C-78.345,95.635 -78.131,95.328 -77.817,95.06C-78.227,94.838 -78.551,94.576 -78.791,94.273C-79.031,93.971 -79.188,93.628 -79.263,93.246C-79.357,92.76 -79.338,92.329 -79.204,91.954C-79.074,91.58 -78.834,91.272 -78.484,91.032C-78.225,90.856 -77.78,90.707 -77.149,90.584L-72.918,89.761L-72.577,91.512L-76.359,92.248C-77.016,92.376 -77.428,92.518 -77.595,92.676C-77.813,92.886 -77.889,93.16 -77.824,93.496C-77.776,93.741 -77.656,93.957 -77.465,94.144C-77.273,94.331 -77.023,94.444 -76.713,94.483C-76.408,94.523 -75.944,94.482 -75.321,94.361L-72.143,93.743L-71.803,95.494L-75.429,96.199C-76.073,96.324 -76.482,96.436 -76.657,96.535C-76.832,96.634 -76.952,96.758 -77.017,96.909C-77.084,97.056 -77.095,97.241 -77.051,97.465C-76.999,97.735 -76.879,97.964 -76.692,98.152C-76.504,98.34 -76.264,98.455 -75.971,98.497C-75.679,98.535 -75.216,98.492 -74.58,98.368L-71.365,97.743L-71.024,99.494L-77.642,100.781ZM-71.962,107.832C-72.527,108.012 -73.117,108.047 -73.734,107.937C-74.351,107.828 -74.88,107.563 -75.32,107.144C-75.761,106.72 -76.082,106.194 -76.283,105.565C-76.592,104.593 -76.53,103.696 -76.095,102.874C-75.664,102.052 -74.966,101.488 -74.003,101.181C-73.031,100.871 -72.124,100.928 -71.283,101.353C-70.447,101.775 -69.877,102.462 -69.573,103.413C-69.386,104.002 -69.34,104.607 -69.435,105.228C-69.531,105.845 -69.791,106.374 -70.214,106.815C-70.642,107.258 -71.224,107.597 -71.962,107.832ZM-72.427,106.062C-71.79,105.859 -71.35,105.552 -71.108,105.141C-70.866,104.731 -70.815,104.304 -70.956,103.861C-71.098,103.417 -71.385,103.1 -71.819,102.91C-72.254,102.715 -72.794,102.721 -73.439,102.927C-74.068,103.127 -74.504,103.433 -74.746,103.843C-74.99,104.249 -75.041,104.674 -74.9,105.118C-74.758,105.561 -74.47,105.88 -74.035,106.075C-73.6,106.269 -73.064,106.265 -72.427,106.062L-72.427,106.062ZM-74.686,109.752L-73.367,109.221L-72.912,110.352L-70.392,109.338C-69.881,109.132 -69.587,109.002 -69.508,108.948C-69.435,108.891 -69.386,108.815 -69.361,108.718C-69.338,108.617 -69.349,108.512 -69.393,108.402C-69.454,108.249 -69.597,108.048 -69.82,107.801L-68.593,107.143C-68.273,107.461 -68.015,107.864 -67.819,108.35C-67.699,108.649 -67.64,108.937 -67.642,109.216C-67.648,109.497 -67.706,109.726 -67.817,109.903C-67.934,110.077 -68.119,110.241 -68.373,110.393C-68.551,110.506 -68.932,110.68 -69.517,110.915L-72.244,112.012L-71.938,112.772L-73.257,113.303L-73.563,112.543L-74.805,113.043L-76.439,111.771L-74.231,110.883L-74.686,109.752ZM-66.005,112.983L-66.911,113.427C-66.48,113.489 -66.083,113.655 -65.719,113.925C-65.358,114.19 -65.08,114.523 -64.884,114.922C-64.684,115.328 -64.595,115.737 -64.615,116.147C-64.635,116.558 -64.771,116.915 -65.023,117.217C-65.275,117.52 -65.686,117.811 -66.256,118.091L-70.086,119.969L-70.872,118.368L-68.09,117.004C-67.239,116.586 -66.731,116.302 -66.565,116.15C-66.405,115.996 -66.306,115.813 -66.269,115.601C-66.235,115.391 -66.277,115.167 -66.394,114.927C-66.528,114.654 -66.723,114.445 -66.977,114.301C-67.235,114.159 -67.494,114.102 -67.754,114.131C-68.017,114.161 -68.582,114.388 -69.448,114.813L-72.001,116.066L-72.787,114.464L-66.734,111.495L-66.005,112.983ZM-63.871,117.455L-62.786,119.187L-64.146,120.998L-62.171,124.15L-59.972,123.679L-58.913,125.368L-68.723,127.237L-69.778,125.553L-63.871,117.455ZM-65.154,122.341L-67.399,125.261L-63.806,124.493L-65.154,122.341Z" style="fill-rule:nonzero;"/>
        </g>
        <path id="path5" d="M91.63,210.37C76.42,195.16 67,174.16 67,151C67,104.68 104.68,67 151,67" style="fill:none;fill-rule:nonzero;stroke:rgb(117,117,117);stroke-width:26px;"/>
        <circle id="circle103" cx="141.5" cy="67.5" r="5.5" style="fill:rgb(101,124,92);"/>
    </g>
    <g id="red">
        <path id="path8" d="M151,94C182.43,94 208,119.57 208,151C208,182.43 182.43,208 151,208C119.57,208 94,182.43 94,151" style="fill:none;fill-rule:nonzero;stroke:rgb(163,56,51);stroke-width:26px;"/>
        <g id="DFAS---DCAS" serif:id="DFAS / DCAS" transform="matrix(0.985229,0.171241,-0.171241,0.985229,155.37,98.62)">
            <path d="M0.939,-9.305L0.939,0L4.475,0C5.169,0 5.723,-0.066 6.138,-0.197C6.692,-0.375 7.132,-0.623 7.458,-0.94C7.89,-1.359 8.222,-1.906 8.455,-2.583C8.646,-3.137 8.741,-3.797 8.741,-4.563C8.741,-5.435 8.64,-6.168 8.437,-6.76C8.234,-7.357 7.937,-7.861 7.548,-8.271C7.158,-8.681 6.69,-8.966 6.144,-9.127C5.738,-9.246 5.147,-9.305 4.373,-9.305L0.939,-9.305ZM2.819,-7.731L3.663,-7.731C4.429,-7.731 4.943,-7.701 5.205,-7.642C5.556,-7.566 5.845,-7.42 6.074,-7.204C6.302,-6.988 6.48,-6.689 6.607,-6.304C6.734,-5.918 6.798,-5.365 6.798,-4.646C6.798,-3.926 6.734,-3.358 6.607,-2.939C6.48,-2.525 6.315,-2.227 6.112,-2.045C5.913,-1.863 5.662,-1.734 5.357,-1.658C5.124,-1.598 4.746,-1.567 4.221,-1.567L2.819,-1.567L2.819,-7.731ZM11.057,-9.047L9.636,0.148L11.494,0.436L12.097,-3.473L15.937,-2.88L16.176,-4.436L12.336,-5.029L12.673,-7.205L17.12,-6.519L17.361,-8.074L11.057,-9.047ZM21.385,-6.993L15.224,0.866L17.13,1.443L18.478,-0.358L22.039,0.718L22.204,2.977L24.161,3.569L23.287,-6.417L21.385,-6.993ZM21.686,-4.634L21.915,-0.957L19.485,-1.693L21.686,-4.634ZM29.061,-3.811C28.748,-3.761 28.459,-3.657 28.194,-3.498C27.775,-3.245 27.462,-2.904 27.255,-2.478C26.933,-1.816 26.918,-1.128 27.208,-0.418C27.415,0.087 27.917,0.67 28.714,1.334C29.334,1.851 29.724,2.193 29.889,2.357C30.129,2.6 30.273,2.82 30.319,3.016C30.37,3.21 30.347,3.407 30.251,3.605C30.101,3.913 29.831,4.116 29.441,4.213C29.056,4.309 28.591,4.224 28.047,3.96C27.533,3.711 27.186,3.384 27.007,2.977C26.832,2.572 26.828,2.068 26.997,1.468L25.275,0.832C24.931,1.822 24.924,2.7 25.253,3.466C25.584,4.229 26.279,4.866 27.338,5.38C28.065,5.732 28.721,5.927 29.306,5.961C29.893,5.992 30.421,5.863 30.89,5.573C31.36,5.284 31.712,4.898 31.944,4.418C32.201,3.889 32.305,3.392 32.254,2.925C32.209,2.457 32.037,2.023 31.74,1.625C31.45,1.225 30.941,0.729 30.213,0.136C29.485,-0.457 29.056,-0.895 28.93,-1.177C28.831,-1.399 28.83,-1.609 28.926,-1.807C29.031,-2.024 29.205,-2.154 29.447,-2.197C29.822,-2.264 30.257,-2.178 30.748,-1.939C31.224,-1.709 31.533,-1.442 31.677,-1.137C31.826,-0.834 31.833,-0.45 31.696,0.015L33.422,0.762C33.769,-0.02 33.788,-0.771 33.479,-1.49C33.173,-2.208 32.495,-2.821 31.444,-3.331C30.801,-3.643 30.202,-3.813 29.651,-3.84C29.445,-3.85 29.249,-3.841 29.061,-3.811ZM37.816,0.218L30.759,7.154L31.873,7.851L38.952,0.929L37.816,0.218ZM40.121,1.816L34.33,9.099L37.097,11.298C37.64,11.73 38.115,12.025 38.521,12.18C39.066,12.386 39.563,12.466 40.016,12.42C40.614,12.361 41.215,12.139 41.819,11.754C42.313,11.438 42.799,10.982 43.276,10.383C43.818,9.7 44.195,9.064 44.405,8.473C44.617,7.88 44.698,7.302 44.648,6.738C44.599,6.175 44.412,5.66 44.085,5.195C43.841,4.849 43.416,4.435 42.81,3.953L40.121,1.816ZM40.612,4.216L41.272,4.742C41.872,5.219 42.256,5.563 42.425,5.773C42.652,6.051 42.788,6.346 42.832,6.657C42.877,6.968 42.83,7.313 42.689,7.693C42.549,8.074 42.255,8.546 41.807,9.109C41.36,9.672 40.956,10.078 40.596,10.327C40.238,10.573 39.923,10.703 39.651,10.719C39.382,10.738 39.105,10.681 38.819,10.551C38.6,10.452 38.284,10.241 37.873,9.914L36.776,9.04L40.612,4.216ZM47.022,9.755C46.075,9.9 45.135,10.395 44.202,11.239C43.115,12.221 42.524,13.291 42.43,14.449C42.339,15.604 42.708,16.639 43.537,17.555C44.207,18.296 44.942,18.742 45.74,18.893C46.544,19.044 47.415,18.882 48.356,18.408L47.564,16.671C46.954,17.012 46.409,17.155 45.932,17.101C45.456,17.047 45.05,16.835 44.715,16.464C44.261,15.962 44.077,15.387 44.164,14.738C44.25,14.089 44.73,13.37 45.603,12.581C46.425,11.837 47.163,11.458 47.817,11.443C48.474,11.431 49.033,11.68 49.496,12.192C49.831,12.562 50.012,12.969 50.037,13.414C50.066,13.862 49.937,14.289 49.653,14.694L51.231,15.776C51.641,15.119 51.852,14.5 51.864,13.919C51.886,12.941 51.516,12.031 50.752,11.186C49.878,10.22 48.854,9.727 47.681,9.71C47.461,9.706 47.241,9.722 47.022,9.755ZM56.011,18.218L46.22,20.193L47.297,21.872L49.49,21.375L51.499,24.507L50.159,26.332L51.263,28.051L57.082,19.889L56.011,18.218ZM54.707,20.207L52.493,23.153L51.122,21.014L54.707,20.207ZM58.059,25.336C57.889,25.369 57.723,25.421 57.56,25.492C56.885,25.785 56.427,26.297 56.185,27.025C56.014,27.543 56.014,28.313 56.187,29.336C56.321,30.132 56.397,30.645 56.415,30.877C56.438,31.217 56.403,31.477 56.31,31.656C56.223,31.837 56.079,31.973 55.877,32.06C55.563,32.197 55.226,32.175 54.866,31.994C54.512,31.816 54.213,31.45 53.972,30.895C53.744,30.371 53.695,29.897 53.823,29.472C53.954,29.05 54.278,28.667 54.797,28.321L53.903,26.716C52.998,27.244 52.422,27.906 52.173,28.702C51.928,29.496 52.039,30.431 52.508,31.51C52.831,32.251 53.203,32.826 53.625,33.233C54.05,33.639 54.536,33.885 55.081,33.971C55.626,34.057 56.143,33.994 56.632,33.781C57.171,33.546 57.574,33.233 57.839,32.845C58.11,32.46 58.262,32.02 58.296,31.525C58.335,31.033 58.272,30.326 58.105,29.401C57.938,28.477 57.899,27.865 57.987,27.568C58.056,27.335 58.191,27.175 58.393,27.087C58.614,26.991 58.831,27.006 59.043,27.131C59.372,27.325 59.644,27.672 59.862,28.172C60.073,28.657 60.135,29.062 60.045,29.387C59.962,29.715 59.716,30.01 59.309,30.274L60.135,31.965C60.906,31.596 61.409,31.039 61.642,30.291C61.876,29.548 61.761,28.639 61.295,27.568C61.01,26.913 60.667,26.396 60.266,26.016C59.867,25.641 59.424,25.411 58.935,25.328C58.634,25.278 58.341,25.281 58.059,25.336Z" style="fill:white;fill-rule:nonzero;"/>
        </g>
        <path id="path7" d="M94,151C94,119.57 119.57,94 151,94" style="fill:none;fill-rule:nonzero;stroke:rgb(117,117,117);stroke-width:26px;"/>
        <circle id="circle104" cx="141.5" cy="94.5" r="5.5" style="fill:rgb(163,56,51);"/>
    </g>
    <g id="center">
        <path id="path101" d="M151,194C127.29,194 108,174.71 108,151C108,127.29 127.29,108 151,108C174.71,108 194,127.29 194,151C194,174.71 174.71,194 151,194Z" style="fill:rgb(179,179,179);fill-rule:nonzero;"/>
        <g id="text109" transform="matrix(1,0,0,1,124.55,149.41)">
            <text x="0px" y="0px" style="font-family:'ArialMT', 'Arial', sans-serif;font-size:11.16px;">P</text>
            <g transform="matrix(1,0,0,1,6.61,0)">
                <text x="0px" y="0px" style="font-family:'ArialMT', 'Arial', sans-serif;font-size:11.16px;">A</text>
            </g>
            <g transform="matrix(1,0,0,1,13.65,0)">
                <text x="0px" y="0px" style="font-family:'ArialMT', 'Arial', sans-serif;font-size:11.16px;">YMENT</text>
            </g>
            <g transform="matrix(1,0,0,1,-8.99,13.39)">
                <text x="0px" y="0px" style="font-family:'ArialMT', 'Arial', sans-serif;font-size:11.16px;">INTER</text>
            </g>
            <g transform="matrix(1,0,0,1,24.49,13.39)">
                <text x="0px" y="0px" style="font-family:'ArialMT', 'Arial', sans-serif;font-size:11.16px;">F</text>
            </g>
            <g transform="matrix(1,0,0,1,30.69,13.39)">
                <text x="0px" y="0px" style="font-family:'ArialMT', 'Arial', sans-serif;font-size:11.16px;">ACES</text>
            </g>
        </g>
    </g>
</svg>
