<?xml version="1.0" encoding="UTF-8"?>
<svg xmlns="http://www.w3.org/2000/svg" xmlns:xlink="http://www.w3.org/1999/xlink" viewBox="0 0 600 325">
  <defs>
    <style>
      .cls-1 {
        fill: #d9e6e8;
        mix-blend-mode: multiply;
      }

      .cls-2 {
        fill: gray;
      }

      .cls-3 {
        filter: url(#outer-glow-1);
      }

      .cls-4, .cls-5 {
        fill: #0b0e14;
      }

      .cls-6 {
        fill: #7890a0;
      }

      .cls-7 {
        isolation: isolate;
      }

      .cls-8 {
        fill: #f7fcfc;
      }

      .cls-9 {
        fill: #e8eded;
      }

      .cls-10 {
        fill: #eaefef;
      }

      .cls-11 {
        fill: #b3b3b3;
      }

      .cls-12 {
        letter-spacing: -.07em;
      }

      .cls-13 {
        letter-spacing: -.04em;
      }

      .cls-5 {
        font-family: Arial-BoldMT, Arial;
        font-size: 42.61px;
        font-weight: 700;
      }

      .cls-14 {
        fill: #c5d7d8;
      }
    </style>
    <filter id="outer-glow-1" x="6.03" y="-.55" width="281" height="326" filterUnits="userSpaceOnUse">
      <feOffset dx="0" dy="0"/>
      <feGaussianBlur result="blur" stdDeviation="5"/>
      <feFlood flood-color="#f4f4f4" flood-opacity=".75"/>
      <feComposite in2="blur" operator="in"/>
      <feComposite in="SourceGraphic"/>
    </filter>
  </defs>
  <g class="cls-7">
    <g id="Layer_1">
      <g>
        <g class="cls-3">
          <g>
            <path class="cls-2" d="M143.29,133.05h120.2s8.51-.22,8.51,7.75v160.83c0,9.05-8.08,8.4-8.08,8.4H30.36s-8.35.76-8.35-9.69V105.21s-.75-6.46,11.36-6.46h80.62s4.85-.65,9.86,6.79c5.01,7.43,15.78,27.52,19.44,27.52Z"/>
            <g>
              <polygon class="cls-1" points="271.31 280.98 85.42 292.17 22.69 76.47 205.17 30.97 244.6 150.03 271.31 280.98"/>
              <polygon class="cls-9" points="271.31 280.98 78.97 286.92 24.48 68.41 206.96 22.91 271.31 280.98"/>
              <polygon class="cls-1" points="229.05 305.39 44.39 291.65 74.8 24.75 265.04 47.67 229.05 305.39"/>
              <rect class="cls-10" x="18.94" y="67.9" width="265.97" height="188.06" transform="translate(-27.32 292.99) rotate(-83)"/>
              <polygon class="cls-1" points="242.82 280.71 61.1 287.6 49.39 19.21 246.4 17.42 242.82 280.71"/>
              <rect class="cls-8" x="53.71" y="14.96" width="188.06" height="265.98"/>
              <g>
                <g>
                  <path class="cls-4" d="M76.1,66.99v-24.75h5.27v24.75h-5.27Z"/>
                  <path class="cls-4" d="M103.44,66.99l-11.8-16.14v16.14h-5.27v-24.75h5.42l11.47,15.55v-15.55h5.27v24.75h-5.09Z"/>
                  <path class="cls-4" d="M120.41,66.99l-9.58-24.75h6.01l6.87,19.04,6.83-19.04h6.01l-9.54,24.75h-6.6Z"/>
                  <path class="cls-4" d="M136.58,54.63c0-7.46,5.46-12.8,12.91-12.8s12.95,5.34,12.95,12.8-5.46,12.8-12.95,12.8-12.91-5.35-12.91-12.8ZM157.03,54.63c0-4.64-2.97-8.13-7.53-8.13s-7.5,3.49-7.5,8.13,2.93,8.13,7.5,8.13,7.53-3.53,7.53-8.13Z"/>
                  <path class="cls-4" d="M166.24,66.99v-24.75h5.27v24.75h-5.27Z"/>
                  <path class="cls-4" d="M175.22,54.63c0-7.61,5.75-12.8,13.17-12.8,5.45,0,8.61,2.97,10.35,6.05l-4.53,2.23c-1.04-2-3.26-3.6-5.83-3.6-4.49,0-7.76,3.45-7.76,8.13s3.27,8.13,7.76,8.13c2.56,0,4.79-1.56,5.83-3.6l4.53,2.19c-1.78,3.08-4.9,6.09-10.35,6.09-7.42,0-13.17-5.2-13.17-12.8Z"/>
                  <path class="cls-4" d="M201.87,66.99v-24.75h17.52v4.64h-12.25v5.24h11.99v4.64h-11.99v5.6h12.25v4.64h-17.52Z"/>
                </g>
                <path class="cls-4" d="M76.1,75.94h143.29v4.61H76.1v-4.61Z"/>
                <g>
                  <path class="cls-14" d="M76.1,98.46h101.53v4.61h-101.53v-4.61Z"/>
                  <path class="cls-14" d="M76.1,112.02h101.53v4.61h-101.53v-4.61Z"/>
                  <path class="cls-14" d="M76.1,125.59h101.53v4.61h-101.53v-4.61Z"/>
                  <path class="cls-14" d="M76.1,139.16h143.29v4.61H76.1v-4.61Z"/>
                  <path class="cls-14" d="M76.1,152.72h143.29v4.61H76.1v-4.61Z"/>
                  <path class="cls-14" d="M76.1,166.29h143.29v4.61H76.1v-4.61Z"/>
                  <path class="cls-14" d="M76.1,179.85h143.29v4.61H76.1v-4.61Z"/>
                  <path class="cls-14" d="M76.1,193.42h143.29v4.61H76.1v-4.61Z"/>
                  <path class="cls-14" d="M76.1,206.99h143.29v4.61H76.1v-4.61Z"/>
                  <path class="cls-14" d="M76.1,220.55h143.29v4.61H76.1v-4.61Z"/>
                  <path class="cls-14" d="M76.1,234.12h143.29v4.61H76.1v-4.61Z"/>
                  <path class="cls-14" d="M76.1,247.68h143.29v4.61H76.1v-4.61Z"/>
                </g>
              </g>
            </g>
            <path class="cls-11" d="M143.29,159.9h120.2s8.51-.22,8.51,7.75v133.98c0,9.05-8.08,8.4-8.08,8.4H30.35s-8.35.76-8.35-9.69v-168.29s-.76-6.46,11.36-6.46h80.62s4.85-.65,9.86,6.78c5.01,7.43,15.78,27.52,19.44,27.52Z"/>
            <g>
              <path class="cls-14" d="M215.79,98.46h-28.16v31.74h31.74v-31.74h-3.58ZM214.76,125.59h-22.52v-22.52h22.52v22.52Z"/>
              <polygon class="cls-6" points="219.05 98.1 203.71 113.44 198.22 107.95 194.57 111.6 200.07 117.09 203.71 120.73 222.7 101.75 219.05 98.1"/>
            </g>
          </g>
        </g>
        <g>
          <path class="cls-2" d="M449.29,133.05h120.2s8.51-.22,8.51,7.75v160.83c0,9.05-8.08,8.4-8.08,8.4h-233.56s-8.35.76-8.35-9.69V105.21s-.75-6.46,11.36-6.46h80.62s4.85-.65,9.86,6.79c5.01,7.43,15.78,27.52,19.44,27.52Z"/>
          <g>
            <polygon class="cls-1" points="577.31 280.98 391.42 292.17 328.69 76.47 511.17 30.97 550.6 150.03 577.31 280.98"/>
            <polygon class="cls-9" points="577.31 280.98 384.97 286.92 330.48 68.41 512.96 22.91 577.31 280.98"/>
            <polygon class="cls-1" points="535.05 305.39 350.39 291.65 380.8 24.75 571.04 47.67 535.05 305.39"/>
            <rect class="cls-10" x="324.94" y="67.9" width="265.97" height="188.06" transform="translate(241.39 596.71) rotate(-83)"/>
            <polygon class="cls-1" points="548.82 280.71 367.1 287.6 355.39 19.21 552.4 17.42 548.82 280.71"/>
            <rect class="cls-8" x="359.71" y="14.96" width="188.06" height="265.98"/>
            <g>
              <g>
                <path class="cls-4" d="M382.1,66.99v-24.75h5.27v24.75h-5.27Z"/>
                <path class="cls-4" d="M409.44,66.99l-11.8-16.14v16.14h-5.27v-24.75h5.42l11.47,15.55v-15.55h5.27v24.75h-5.09Z"/>
                <path class="cls-4" d="M426.41,66.99l-9.58-24.75h6.01l6.87,19.04,6.83-19.04h6.01l-9.54,24.75h-6.6Z"/>
                <path class="cls-4" d="M442.58,54.63c0-7.46,5.46-12.8,12.91-12.8s12.95,5.34,12.95,12.8-5.46,12.8-12.95,12.8-12.91-5.35-12.91-12.8ZM463.03,54.63c0-4.64-2.97-8.13-7.53-8.13s-7.5,3.49-7.5,8.13,2.93,8.13,7.5,8.13,7.53-3.53,7.53-8.13Z"/>
                <path class="cls-4" d="M472.24,66.99v-24.75h5.27v24.75h-5.27Z"/>
                <path class="cls-4" d="M481.22,54.63c0-7.61,5.75-12.8,13.17-12.8,5.45,0,8.61,2.97,10.35,6.05l-4.53,2.23c-1.04-2-3.26-3.6-5.83-3.6-4.49,0-7.76,3.45-7.76,8.13s3.27,8.13,7.76,8.13c2.56,0,4.79-1.56,5.83-3.6l4.53,2.19c-1.78,3.08-4.9,6.09-10.35,6.09-7.42,0-13.17-5.2-13.17-12.8Z"/>
                <path class="cls-4" d="M507.87,66.99v-24.75h17.52v4.64h-12.25v5.24h11.99v4.64h-11.99v5.6h12.25v4.64h-17.52Z"/>
              </g>
              <path class="cls-4" d="M382.1,75.94h143.29v4.61h-143.29v-4.61Z"/>
              <g>
                <path class="cls-14" d="M382.1,98.46h101.53v4.61h-101.53v-4.61Z"/>
                <path class="cls-14" d="M382.1,112.02h101.53v4.61h-101.53v-4.61Z"/>
                <path class="cls-14" d="M382.1,125.59h101.53v4.61h-101.53v-4.61Z"/>
                <path class="cls-14" d="M382.1,139.16h143.29v4.61h-143.29v-4.61Z"/>
                <path class="cls-14" d="M382.1,152.72h143.29v4.61h-143.29v-4.61Z"/>
                <path class="cls-14" d="M382.1,166.29h143.29v4.61h-143.29v-4.61Z"/>
                <path class="cls-14" d="M382.1,179.85h143.29v4.61h-143.29v-4.61Z"/>
                <path class="cls-14" d="M382.1,193.42h143.29v4.61h-143.29v-4.61Z"/>
                <path class="cls-14" d="M382.1,206.99h143.29v4.61h-143.29v-4.61Z"/>
                <path class="cls-14" d="M382.1,220.55h143.29v4.61h-143.29v-4.61Z"/>
                <path class="cls-14" d="M382.1,234.12h143.29v4.61h-143.29v-4.61Z"/>
                <path class="cls-14" d="M382.1,247.68h143.29v4.61h-143.29v-4.61Z"/>
              </g>
            </g>
          </g>
          <path class="cls-11" d="M449.29,159.9h120.2s8.51-.22,8.51,7.75v133.98c0,9.05-8.08,8.4-8.08,8.4h-233.57s-8.35.76-8.35-9.69v-168.29s-.76-6.46,11.36-6.46h80.62s4.85-.65,9.86,6.78c5.01,7.43,15.78,27.52,19.44,27.52Z"/>
          <g>
            <path class="cls-14" d="M521.79,98.46h-28.16v31.74h31.74v-31.74h-3.58ZM520.76,125.59h-22.52v-22.52h22.52v22.52Z"/>
            <polygon class="cls-6" points="525.05 98.1 509.71 113.44 504.22 107.95 500.57 111.6 506.07 117.09 509.71 120.73 528.7 101.75 525.05 98.1"/>
          </g>
        </g>
        <text class="cls-5" transform="translate(103.31 247.41)"><tspan x="0" y="0">P</tspan><tspan class="cls-12" x="28.42" y="0">P</tspan><tspan class="cls-13" x="53.68" y="0">A</tspan></text>
        <text class="cls-5" transform="translate(411.7 211.41)"><tspan x="0" y="0">non</tspan><tspan x="-2.39" y="51.13">P</tspan><tspan class="cls-12" x="26.03" y="51.13">P</tspan><tspan class="cls-13" x="51.29" y="51.13">A</tspan></text>
      </g>
    </g>
  </g>
</svg>