<?xml version="1.0" encoding="UTF-8"?>
<svg id="Layer_1" xmlns="http://www.w3.org/2000/svg" viewBox="0 0 613.46 660.5">
  <defs>
    <style>
      .cls-1 {
        fill: #e6e9ee;
      }

      .cls-2 {
        fill: #fafdff;
      }

      .cls-3 {
        fill: #231f20;
      }

      .cls-4 {
        fill: #c6c3bc;
      }

      .cls-5, .cls-6 {
        fill: #fff;
      }

      .cls-7 {
        fill: #b2ae9b;
      }

      .cls-8 {
        fill: #aaacb1;
      }

      .cls-9 {
        fill: #b3b3b3;
      }

      .cls-10 {
        fill: #e8823d;
      }

      .cls-11 {
        letter-spacing: -.07em;
      }

      .cls-12 {
        letter-spacing: -.09em;
      }

      .cls-13 {
        fill: #e7e9ee;
      }

      .cls-6 {
        font-family: Arial-BoldMT, Arial;
        font-size: 28.55px;
        font-weight: 700;
      }

      .cls-14 {
        fill: #353535;
      }
    </style>
  </defs>
  <g>
    <g id="Desktop_Computer">
      <polygon class="cls-1" points="390.53 615.54 223.94 615.54 253.11 516.84 359.07 516.84 390.53 615.54"/>
      <polygon class="cls-1" points="390.53 615.54 223.94 615.54 253.11 516.84 359.07 516.84 390.53 615.54"/>
      <polygon class="cls-8" points="370.86 553.82 359.07 516.84 253.11 516.84 242.18 553.82 370.86 553.82"/>
      <polygon class="cls-1" points="408.67 610.61 306.73 592.56 205.8 610.61 205.8 616.5 408.67 616.5 408.67 610.61"/>
      <path class="cls-9" d="M613.46,486.98V132.2c0-5.65-4.58-10.22-10.23-10.22H10.23c-5.65,0-10.23,4.58-10.23,10.22v354.78h613.46Z"/>
      <path class="cls-13" d="M0,486.98v43.97c0,5.65,4.58,10.22,10.23,10.22h593.01c5.65,0,10.23-4.58,10.23-10.22v-43.97H0Z"/>
      <rect class="cls-14" x="22.49" y="145.83" width="568.47" height="318.31"/>
      <path class="cls-8" d="M322.41,511.52c0,6.97-5.65,12.61-12.61,12.61s-12.61-5.65-12.61-12.61,5.64-12.61,12.61-12.61,12.61,5.64,12.61,12.61Z"/>
    </g>
    <g>
      <rect class="cls-2" x="158.63" width="327.56" height="431.69"/>
      <rect class="cls-7" x="180.68" y="104.71" width="286.25" height="15.13"/>
      <rect class="cls-7" x="180.68" y="26.42" width="150.67" height="5.9"/>
      <rect class="cls-4" x="180.68" y="40.09" width="91.62" height="5.9"/>
      <rect class="cls-4" x="180.68" y="50.1" width="91.62" height="5.9"/>
      <rect class="cls-4" x="180.68" y="225.79" width="286.25" height="5.9"/>
      <rect class="cls-4" x="180.68" y="236.67" width="286.25" height="5.9"/>
      <rect class="cls-4" x="395.46" y="291.39" width="71.47" height="5.9"/>
      <rect class="cls-4" x="395.46" y="302.28" width="71.47" height="5.9"/>
      <rect class="cls-4" x="180.68" y="291.39" width="71.47" height="5.9"/>
      <rect class="cls-4" x="180.68" y="302.28" width="71.47" height="5.9"/>
      <rect class="cls-4" x="180.68" y="246.68" width="286.25" height="5.9"/>
      <rect class="cls-4" x="180.68" y="119.84" width="286.25" height="86.38"/>
      <rect class="cls-7" x="193.62" y="131.53" width="91.62" height="5.9"/>
      <rect class="cls-7" x="193.62" y="151.99" width="91.62" height="5.9"/>
      <rect class="cls-7" x="193.62" y="141.53" width="70.82" height="5.9"/>
      <path class="cls-10" d="M468.06,368.47c0,12.46-10.1,22.56-22.56,22.56h-100.09c-12.46,0-22.56-10.1-22.56-22.56h0c0-12.46,10.1-22.56,22.56-22.56h100.09c12.46,0,22.56,10.1,22.56,22.56h0Z"/>
      <g>
        <path class="cls-5" d="M368.11,381.21h-4.82l4.9-23.42h9.52c1.69,0,3.03.2,4.02.6.99.4,1.77,1.06,2.34,1.98.57.92.86,2.02.86,3.3,0,1.18-.23,2.33-.69,3.45-.46,1.12-1.02,2.01-1.69,2.68-.67.67-1.38,1.18-2.15,1.53-.77.35-1.8.61-3.1.79-.76.11-2.17.16-4.25.16h-3.08l-1.87,8.93ZM370.78,368.4h1.49c2.55,0,4.24-.16,5.1-.48.85-.32,1.52-.83,2.01-1.53.49-.7.73-1.48.73-2.32,0-.56-.13-1.03-.38-1.39-.25-.36-.6-.63-1.05-.79-.45-.17-1.46-.25-3.03-.25h-3.45l-1.42,6.76Z"/>
        <path class="cls-5" d="M398.03,376.04h-9.28l-2.81,5.18h-4.95l13.24-23.42h5.35l3.8,23.42h-4.57l-.78-5.18ZM397.44,372.14l-1.36-9.43-5.66,9.43h7.01Z"/>
        <path class="cls-5" d="M415.67,381.21h-4.81l1.9-9.12-6.45-14.3h5.13l2.91,6.61c.69,1.59,1.16,2.73,1.39,3.44.39-.69.85-1.43,1.37-2.2l2.22-3.1,3.31-4.74h5.59l-10.74,14.75-1.82,8.67Z"/>
      </g>
      <g>
        <path class="cls-3" d="M350.29,50.1v-20.73h2.74v20.73h-2.74Z"/>
        <path class="cls-3" d="M357.84,50.1v-20.73h2.81l10.89,16.27v-16.27h2.63v20.73h-2.81l-10.89-16.29v16.29h-2.63Z"/>
        <path class="cls-3" d="M384.71,50.1l-8.03-20.73h2.97l5.39,15.06c.43,1.21.8,2.34,1.09,3.39.32-1.13.69-2.26,1.12-3.39l5.6-15.06h2.8l-8.12,20.73h-2.81Z"/>
        <path class="cls-3" d="M397.26,40c0-3.44.92-6.13,2.77-8.08,1.85-1.95,4.23-2.92,7.15-2.92,1.91,0,3.64.46,5.17,1.37,1.54.91,2.71,2.19,3.51,3.82.81,1.64,1.21,3.49,1.21,5.56s-.42,3.98-1.27,5.64c-.85,1.66-2.05,2.92-3.61,3.77-1.56.85-3.23,1.28-5.03,1.28-1.95,0-3.69-.47-5.23-1.41-1.54-.94-2.7-2.23-3.49-3.86-.79-1.63-1.19-3.36-1.19-5.17ZM400.09,40.04c0,2.5.67,4.47,2.01,5.9,1.34,1.44,3.03,2.16,5.05,2.16s3.76-.73,5.1-2.18c1.33-1.45,2-3.51,2-6.18,0-1.69-.29-3.16-.86-4.42-.57-1.26-1.4-2.23-2.5-2.93-1.1-.69-2.33-1.04-3.7-1.04-1.94,0-3.61.67-5.01,2-1.4,1.33-2.1,3.56-2.1,6.68Z"/>
        <path class="cls-3" d="M421.09,50.1v-20.73h2.74v20.73h-2.74Z"/>
        <path class="cls-3" d="M443.45,42.83l2.74.69c-.58,2.25-1.61,3.97-3.1,5.15-1.49,1.18-3.32,1.77-5.48,1.77s-4.05-.45-5.45-1.36c-1.4-.91-2.46-2.23-3.2-3.95-.73-1.72-1.1-3.58-1.1-5.56,0-2.16.41-4.04,1.24-5.65.82-1.61,2-2.83,3.52-3.66,1.52-.83,3.2-1.25,5.03-1.25,2.07,0,3.82.53,5.23,1.58,1.41,1.06,2.4,2.54,2.95,4.45l-2.7.64c-.48-1.51-1.18-2.61-2.09-3.29-.91-.69-2.06-1.03-3.45-1.03-1.59,0-2.92.38-3.99,1.15-1.07.76-1.82,1.79-2.25,3.08-.43,1.29-.65,2.61-.65,3.98,0,1.76.26,3.3.77,4.62.51,1.31,1.31,2.3,2.4,2.95,1.08.65,2.26.98,3.52.98,1.54,0,2.84-.44,3.9-1.33,1.06-.89,1.79-2.2,2.16-3.94Z"/>
        <path class="cls-3" d="M449.63,50.1v-20.73h14.99v2.45h-12.24v6.35h11.47v2.43h-11.47v7.06h12.72v2.45h-15.47Z"/>
      </g>
    </g>
  </g>
  <text class="cls-6" transform="translate(39.11 647.25)"><tspan x="0" y="0">MISCELLANEOUS </tspan><tspan class="cls-11" x="255.4" y="0">P</tspan><tspan class="cls-12" x="272.32" y="0">A</tspan><tspan x="290.32" y="0">YMENT INVOICES</tspan></text>
</svg>