<?xml version="1.0" encoding="UTF-8"?>
<svg id="Layer_1" xmlns="http://www.w3.org/2000/svg" viewBox="0 0 404.23 194.72">
  <defs>
    <style>
      .cls-1 {
        fill: #329932;
      }

      .cls-2 {
        fill: #75cc68;
      }

      .cls-3 {
        fill: #fff;
      }
    </style>
  </defs>
  <g>
    <polygon class="cls-2" points="163.56 32.55 163.56 23.41 161.46 23.41 161.46 24.25 161.46 27.25 158.46 27.25 143.16 27.25 143.16 32.55 160.36 32.55 163.56 32.55"/>
    <path class="cls-2" d="M329.65,33.41c2.06,0,4.23-.36,4.93-4.01h-8.55v-5.99h-3.29c.23,4.3,1.54,10,6.9,10Z"/>
    <path class="cls-2" d="M232.04,23.41h-10.77v9.45h2.53c4.91,0,7.67-3.18,8.24-9.45Z"/>
    <path class="cls-2" d="M76.68,31.44c0-1.18-.01-2.15-3.89-3.51v5.58c.13,0,.25.02.38.02,3.51,0,3.51-1.11,3.51-2.1Z"/>
    <path class="cls-2" d="M327.74,46.23c-11.6,0-19.22-8.91-19.77-22.82h-1.73v22.2h-15.39l-.82-1.71c-4.29-8.98-7.36-15.46-9.59-20.17,0,1.91,0,3.87,0,5.86v16.02h-13.8v-22.2h-3.52v22.2h-14.6v-22.2h-1.59c-.99,13.77-9.63,22.2-23.04,22.2h-17.31v-22.2h-3.46v22.2h-15.39l-.81-1.71c-4.29-8.98-7.36-15.46-9.59-20.17,0,1.91,0,3.87,0,5.86v16.02h-13.8v-11.21l-.23,1.58-1.04,7.06-.38,2.56h-33.1v-22.2h-3.87c-3.21,3.79-8.44,5.99-15.05,5.99h-3.14v16.21h-14.6v-22.2h-2.36c1.04,2.03,1.54,4.36,1.54,7.05,0,7.59-4.87,15.71-18.53,15.71,0,0,0,0-.01,0v110.94h33.98c2.43-10.43,9.95-16.83,20.52-16.83,13.32,0,18.64,8.92,19.14,16.56l.02.28h.5v-16.28h14.6v16.28h9.35v-16.28h14.6v16.28h7.55c2.51-8.27,4.11-13.52,4.35-14.23l.68-2.05h15.46l.67,2.08,4.56,14.2h8.31v-16.28h14.6v16.28h3.52v-16.28h15.8l.82,1.68c2.91,5.95,5.24,10.72,7.13,14.6h1.97c0-.09,0-.18,0-.26v-16.02h13.86v16.28h12.91l22.23-20.67,2.2-2.04,2.04,2.19,4.68,5.02,2.05,2.2-2.2,2.04-12.1,11.25h19.66V44.64c-3.37,1.57-6.9,1.58-8.48,1.58Z"/>
    <path class="cls-2" d="M127.04,153.15c-1.85,0-3.92.84-5.17,3.96h10.07c-.66-2.47-1.47-3.96-4.9-3.96Z"/>
  </g>
  <path class="cls-1" d="M311.3,36.53h-5.05v9.08h-15.39l-.82-1.71c-1.28-2.67-2.44-5.12-3.51-7.37h-6.07v9.08h-13.8v-9.08h-3.52v9.08h-14.6v-9.08h-5.84c-3.96,5.79-10.44,9.08-18.79,9.08h-17.31v-9.08h-3.46v9.08h-15.39l-.81-1.71c-1.28-2.67-2.44-5.12-3.51-7.37h-6.07v9.08h-13.8v-9.08h-.31l-.96,6.52-.38,2.56h-33.1v-9.08h-22.06v9.08h-14.6v-9.08h-1.97c-.91,2.27-2.41,4.36-4.61,6.01v101.44h29.44c3.34-2.39,7.49-3.71,12.27-3.71,5.38,0,9.44,1.47,12.42,3.71h7.24v-3.16h14.6v3.16h9.35v-3.16h14.6v3.16h11.55c.18-.57.3-.95.35-1.1l.68-2.05h15.46l.67,2.08.34,1.07h12.53v-3.16h14.6v3.16h3.52v-3.16h15.8l.82,1.68c.25.51.48.98.72,1.47h8.38v-3.16h13.86v3.16h27.02l8.11-7.54,2.2-2.04,1.33,1.43V45.79c-5.28-1.13-9.45-4.39-12.14-9.25Z"/>
  <path class="cls-2" d="M290.99,45.61h-.13l-.82-1.71c-.2-.41-.39-.81-.58-1.21h-9v2.92h-13.8v-2.92h-3.52v2.92h-14.6v-2.92h-12.54c-3.38,1.89-7.44,2.92-12.09,2.92h-17.31v-2.92h-3.46v2.92h-15.39l-.81-1.71c-.2-.41-.39-.81-.58-1.21h-9v2.92h-13.8v-2.92h-1.22l-.05.36-.38,2.56h-33.1v-2.92h-10.61c0,13.87-11.25,25.12-25.12,25.12v44.89c13.87,0,25.12,11.25,25.12,25.12h172.61c0-13.87,11.25-25.12,25.12-25.12v-44.89c-12.89,0-23.5-9.7-24.95-22.2Z"/>
  <circle class="cls-1" cx="204.51" cy="90.26" r="39.8"/>
  <circle class="cls-1" cx="278.65" cy="90.26" r="8.75"/>
  <circle class="cls-1" cx="128.43" cy="90.26" r="8.75"/>
  <path class="cls-2" d="M219.32,99.89v.06c0,2.84-.55,5.2-1.66,7.08s-2.76,3.29-4.97,4.23c-1.34.57-2.88.97-4.64,1.19v5.11h-6.16v-5.03c-1.05-.12-2.06-.31-3.04-.57-1.74-.47-3.37-1.18-4.89-2.11-1.52-.94-2.95-2.11-4.28-3.52l4.14-5.01c1.45,1.75,3.05,3.07,4.82,3.94,1.76.88,3.68,1.32,5.75,1.32,2.86,0,4.99-.56,6.41-1.68,1.41-1.12,2.12-2.81,2.12-5.09v-.03c0-1.45-.34-2.6-1.03-3.44-.68-.84-1.57-1.48-2.66-1.9-1.09-.42-2.48-.79-4.17-1.12-.06-.02-.12-.03-.17-.03s-.11-.01-.17-.03c-.1-.02-.21-.04-.32-.06-.11-.02-.22-.04-.32-.06-2.7-.5-4.88-1.07-6.55-1.69-1.67-.62-3.1-1.76-4.29-3.4-1.19-1.64-1.78-3.97-1.78-6.99v-.03c0-2.94.53-5.38,1.6-7.32,1.07-1.94,2.66-3.4,4.79-4.38,1.18-.54,2.52-.93,4.03-1.18v-5.18h6.16v5.01c.66.07,1.32.18,1.98.32,1.38.29,2.74.74,4.09,1.33,1.35.59,2.69,1.34,4.02,2.22l-3.72,5.11c-1.49-1.01-2.95-1.76-4.36-2.25-1.42-.49-2.82-.74-4.21-.74-2.66,0-4.65.55-5.98,1.65-1.33,1.1-1.99,2.74-1.99,4.94v.03c0,1.51.38,2.69,1.15,3.55.77.85,1.73,1.49,2.89,1.89,1.16.4,2.74.83,4.76,1.27.08.02.16.04.24.06.08.02.17.04.27.06.1.02.2.04.29.06.09.02.19.04.29.06,2.38.52,4.36,1.16,5.97,1.92,1.6.76,2.93,1.97,4,3.64,1.07,1.67,1.6,3.95,1.6,6.83Z"/>
  <g>
    <path class="cls-3" d="M65.62,30.21c.61,3.81,3.07,6.32,7.55,6.32,4.79,0,6.51-2.09,6.51-5.1,0-3.81-2.33-5.4-8.41-7.12-9.76-2.7-13.08-6.2-13.08-12.28,0-7.8,6.26-12.03,14.25-12.03,10.13,0,14.37,5.22,14.86,11.97h-8.41c-.55-3.07-2.03-5.46-6.51-5.46-3.81,0-5.65,1.78-5.65,4.73,0,3.13,2.15,3.99,8.1,5.71,10.75,3.13,13.51,7.43,13.51,13.51,0,6.82-4.54,12.71-15.53,12.71-9.21,0-15.17-4.67-15.66-12.96h8.47Z"/>
    <path class="cls-3" d="M95.15.55h15.47c7.92,0,14.86,4.05,14.86,12.59s-6.45,13.26-15.6,13.26h-6.14v16.21h-8.6V.55ZM103.75,19.59h5.65c4.54,0,7.37-1.66,7.37-6.32,0-4.18-2.89-5.89-7.12-5.89h-5.89v12.22Z"/>
    <path class="cls-3" d="M158.46,24.25h-18.3v11.3h20.2l-1.04,7.06h-27.51V.55h27.45v7.06h-19.1v9.52h18.3v7.12Z"/>
    <path class="cls-3" d="M166.56,42.61V.55h10.93c12.53,25.6,14.55,29.78,15.17,31.81h.12c-.43-5.04-.49-11.91-.49-18.79V.55h7.86v42.06h-10.5c-13.45-28.18-14.92-31.56-15.53-33.16h-.06c.31,5.34.31,12.59.31,20.14v13.02h-7.8Z"/>
    <path class="cls-3" d="M209.61.55h14.61c12.77,0,19.83,7.8,19.83,20.14,0,13.69-7.37,21.92-20.14,21.92h-14.31V.55ZM218.27,35.86h5.53c7.49,0,11.36-5.59,11.36-15.04,0-7.8-3.5-13.38-11.3-13.38h-5.59v28.43Z"/>
    <path class="cls-3" d="M260.14.55v42.06h-8.6V.55h8.6Z"/>
    <path class="cls-3" d="M269.66,42.61V.55h10.93c12.53,25.6,14.55,29.78,15.17,31.81h.12c-.43-5.04-.49-11.91-.49-18.79V.55h7.86v42.06h-10.5c-13.45-28.18-14.92-31.56-15.53-33.16h-.06c.31,5.34.31,12.59.31,20.14v13.02h-7.8Z"/>
    <path class="cls-3" d="M346.35,42.61h-6.32c-.31-1.35-.55-3.32-.61-4.91-2.21,4.24-6.39,5.53-11.67,5.53-11.05,0-16.82-9.15-16.82-21.43s6.82-21.8,19.22-21.8c10.01,0,15.23,5.59,16.27,12.59h-8.41c-.8-2.64-2.64-5.71-8.35-5.71-7.31,0-9.95,7-9.95,14.98s2.82,14.55,9.95,14.55c6.32,0,8.17-4.42,8.17-9.82v-.18h-8.78v-7.31h17.31v23.52Z"/>
  </g>
  <g>
    <path class="cls-3" d="M143.68,172.62c-1.17,7.12-5.96,13.88-16.7,13.88-13.26,0-18.05-9.64-18.05-21.67s6.08-21.55,18.36-21.55c11.36,0,15.72,7.25,16.15,13.75h-8.41c-.86-3.44-2.21-6.88-7.98-6.88-7,0-9.33,7.06-9.33,14.67s2.21,14.86,9.39,14.86c5.65,0,7.31-3.93,8.1-7.06h8.47Z"/>
    <path class="cls-3" d="M149.95,143.83h8.6v16.58h15.35v-16.58h8.6v42.06h-8.6v-18.36h-15.35v18.36h-8.6v-42.06Z"/>
    <path class="cls-3" d="M198.76,175.88l-2.95,10.01h-8.41c.55-1.66,12.22-40.22,12.83-42.06h11.11l13.51,42.06h-8.96l-3.19-10.01h-13.94ZM210.98,168.82c-2.58-8.54-4.42-14.55-5.4-18.48h-.06c-.98,4.67-2.89,11.24-5.1,18.48h10.56Z"/>
    <path class="cls-3" d="M238.67,143.83v42.06h-8.6v-42.06h8.6Z"/>
    <path class="cls-3" d="M248.19,185.89v-42.06h10.93c12.53,25.6,14.55,29.78,15.17,31.81h.12c-.43-5.04-.49-11.91-.49-18.79v-13.02h7.86v42.06h-10.5c-13.45-28.18-14.92-31.56-15.53-33.16h-.06c.31,5.34.31,12.59.31,20.14v13.02h-7.8Z"/>
  </g>
  <path class="cls-3" d="M76.75,161.56c-36.68,0-66.52-29.84-66.52-66.52,0-20.66,9.42-39.79,25.48-52.36l-5.1,27.43,6.75,1.25,7.52-40.48L3.96,26.31l-.77,6.82,24.65,2.74C10.26,50.38,0,71.87,0,95.04c0,42.32,34.43,76.75,76.75,76.75h20v-10.23h-20Z"/>
  <path class="cls-3" d="M357.36,24.32l-3.99,9.43c24.68,10.44,40.63,34.5,40.63,61.29,0,36.68-29.84,66.52-66.52,66.52h-20.12l19.27-17.9-4.68-5.02-30.16,28.04,30.16,28.04,4.68-5.02-19.25-17.9h20.1c42.32,0,76.75-34.43,76.75-76.75,0-30.92-18.4-58.67-46.88-70.72Z"/>
</svg>