<?xml version="1.0" encoding="UTF-8"?>
<svg xmlns="http://www.w3.org/2000/svg" xmlns:xlink="http://www.w3.org/1999/xlink" viewBox="0 0 809.26 616.5">
  <defs>
    <style>
      .cls-1 {
        fill: #e6e9ee;
      }

      .cls-2 {
        fill: none;
        mix-blend-mode: overlay;
        opacity: .5;
        stroke: #fff;
        stroke-linecap: round;
        stroke-miterlimit: 10;
        stroke-width: 17.52px;
      }

      .cls-3 {
        fill: gray;
      }

      .cls-4 {
        fill: #f2f2f5;
      }

      .cls-5 {
        fill: #fafdff;
      }

      .cls-6 {
        fill: #231f20;
      }

      .cls-7 {
        fill: url(#radial-gradient);
      }

      .cls-8 {
        fill: #f78b43;
      }

      .cls-9 {
        fill: #c6c3bc;
      }

      .cls-10 {
        isolation: isolate;
      }

      .cls-11 {
        fill: #4a697e;
      }

      .cls-12 {
        fill: #fff;
      }

      .cls-13 {
        fill: #b2ae9b;
      }

      .cls-14 {
        opacity: .25;
      }

      .cls-15 {
        fill: #3b4e67;
      }

      .cls-16 {
        fill: #aaacb1;
      }

      .cls-17 {
        fill: #b3b3b3;
      }

      .cls-18 {
        fill: #e8823d;
      }

      .cls-19 {
        fill: #e7e9ee;
      }

      .cls-20 {
        fill: #a33833;
      }

      .cls-21 {
        fill: #353535;
      }
    </style>
    <radialGradient id="radial-gradient" cx="-4836.74" cy="358.91" fx="-4836.74" fy="358.91" r="65.7" gradientTransform="translate(-4665.63) rotate(-180) scale(1 -1)" gradientUnits="userSpaceOnUse">
      <stop offset="0" stop-color="#00bff2"/>
      <stop offset="1" stop-color="#249bcd"/>
    </radialGradient>
  </defs>
  <g class="cls-10">
    <g id="Layer_1">
      <g>
        <g>
          <g id="Desktop_Computer">
            <polygon class="cls-1" points="444.81 615.54 278.22 615.54 307.39 516.84 413.35 516.84 444.81 615.54"/>
            <polygon class="cls-1" points="444.81 615.54 278.22 615.54 307.39 516.84 413.35 516.84 444.81 615.54"/>
            <polygon class="cls-16" points="425.14 553.82 413.35 516.84 307.39 516.84 296.46 553.82 425.14 553.82"/>
            <polygon class="cls-1" points="462.95 610.61 361.01 592.56 260.08 610.61 260.08 616.5 462.95 616.5 462.95 610.61"/>
            <path class="cls-17" d="M667.74,486.98V132.2c0-5.65-4.58-10.22-10.23-10.22H64.51c-5.65,0-10.23,4.58-10.23,10.22v354.78h613.46Z"/>
            <path class="cls-19" d="M54.28,486.98v43.97c0,5.65,4.58,10.22,10.23,10.22h593.01c5.65,0,10.23-4.58,10.23-10.22v-43.97H54.28Z"/>
            <rect class="cls-21" x="76.77" y="145.83" width="568.47" height="318.31"/>
            <path class="cls-16" d="M376.69,511.52c0,6.97-5.65,12.61-12.61,12.61s-12.61-5.65-12.61-12.61,5.64-12.61,12.61-12.61,12.61,5.64,12.61,12.61Z"/>
          </g>
          <g>
            <rect class="cls-5" x="212.91" width="327.56" height="431.69"/>
            <rect class="cls-13" x="234.96" y="104.71" width="286.25" height="15.13"/>
            <rect class="cls-13" x="234.96" y="26.42" width="150.67" height="5.9"/>
            <rect class="cls-9" x="234.96" y="40.09" width="91.62" height="5.9"/>
            <rect class="cls-9" x="234.96" y="50.1" width="91.62" height="5.9"/>
            <rect class="cls-9" x="234.96" y="225.79" width="286.25" height="5.9"/>
            <rect class="cls-9" x="234.96" y="236.67" width="286.25" height="5.9"/>
            <rect class="cls-9" x="449.74" y="291.39" width="71.47" height="5.9"/>
            <rect class="cls-9" x="449.74" y="302.28" width="71.47" height="5.9"/>
            <rect class="cls-9" x="234.96" y="291.39" width="71.47" height="5.9"/>
            <rect class="cls-9" x="234.96" y="302.28" width="71.47" height="5.9"/>
            <rect class="cls-9" x="234.96" y="246.68" width="286.25" height="5.9"/>
            <rect class="cls-9" x="234.96" y="119.84" width="286.25" height="86.38"/>
            <rect class="cls-13" x="247.9" y="131.53" width="91.62" height="5.9"/>
            <rect class="cls-13" x="247.9" y="151.99" width="91.62" height="5.9"/>
            <rect class="cls-13" x="247.9" y="141.53" width="70.82" height="5.9"/>
            <path class="cls-18" d="M522.34,368.47c0,12.46-10.1,22.56-22.56,22.56h-100.09c-12.46,0-22.56-10.1-22.56-22.56h0c0-12.46,10.1-22.56,22.56-22.56h100.09c12.46,0,22.56,10.1,22.56,22.56h0Z"/>
            <g>
              <path class="cls-12" d="M422.39,381.21h-4.82l4.9-23.42h9.52c1.69,0,3.03.2,4.02.6.99.4,1.77,1.06,2.34,1.98.57.92.86,2.02.86,3.3,0,1.18-.23,2.33-.69,3.45-.46,1.12-1.02,2.01-1.69,2.68-.67.67-1.38,1.18-2.15,1.53-.77.35-1.8.61-3.1.79-.76.11-2.17.16-4.25.16h-3.08l-1.87,8.93ZM425.06,368.4h1.49c2.55,0,4.24-.16,5.1-.48.85-.32,1.52-.83,2.01-1.53.49-.7.73-1.48.73-2.32,0-.56-.13-1.03-.38-1.39-.25-.36-.6-.63-1.05-.79-.45-.17-1.46-.25-3.03-.25h-3.45l-1.42,6.76Z"/>
              <path class="cls-12" d="M452.31,376.04h-9.28l-2.81,5.18h-4.95l13.24-23.42h5.35l3.8,23.42h-4.57l-.78-5.18ZM451.72,372.14l-1.36-9.43-5.66,9.43h7.01Z"/>
              <path class="cls-12" d="M469.95,381.21h-4.81l1.9-9.12-6.45-14.3h5.13l2.91,6.61c.69,1.59,1.16,2.73,1.39,3.44.39-.69.85-1.43,1.37-2.2l2.22-3.1,3.31-4.74h5.59l-10.74,14.75-1.82,8.67Z"/>
            </g>
            <g>
              <path class="cls-6" d="M404.58,50.1v-20.73h2.74v20.73h-2.74Z"/>
              <path class="cls-6" d="M412.13,50.1v-20.73h2.81l10.89,16.27v-16.27h2.63v20.73h-2.81l-10.89-16.29v16.29h-2.63Z"/>
              <path class="cls-6" d="M438.99,50.1l-8.03-20.73h2.97l5.39,15.06c.43,1.21.8,2.34,1.09,3.39.32-1.13.69-2.26,1.12-3.39l5.6-15.06h2.8l-8.12,20.73h-2.81Z"/>
              <path class="cls-6" d="M451.54,40c0-3.44.92-6.13,2.77-8.08,1.85-1.95,4.23-2.92,7.15-2.92,1.91,0,3.64.46,5.17,1.37,1.54.91,2.71,2.19,3.51,3.82.81,1.64,1.21,3.49,1.21,5.56s-.42,3.98-1.27,5.64c-.85,1.66-2.05,2.92-3.61,3.77-1.56.85-3.23,1.28-5.03,1.28-1.95,0-3.69-.47-5.23-1.41-1.54-.94-2.7-2.23-3.49-3.86-.79-1.63-1.19-3.36-1.19-5.17ZM454.37,40.04c0,2.5.67,4.47,2.01,5.9,1.34,1.44,3.03,2.16,5.05,2.16s3.76-.73,5.1-2.18c1.33-1.45,2-3.51,2-6.18,0-1.69-.29-3.16-.86-4.42-.57-1.26-1.4-2.23-2.5-2.93-1.1-.69-2.33-1.04-3.7-1.04-1.94,0-3.61.67-5.01,2-1.4,1.33-2.1,3.56-2.1,6.68Z"/>
              <path class="cls-6" d="M475.37,50.1v-20.73h2.74v20.73h-2.74Z"/>
              <path class="cls-6" d="M497.73,42.83l2.74.69c-.58,2.25-1.61,3.97-3.1,5.15-1.49,1.18-3.32,1.77-5.48,1.77s-4.05-.45-5.45-1.36c-1.4-.91-2.46-2.23-3.2-3.95-.73-1.72-1.1-3.58-1.1-5.56,0-2.16.41-4.04,1.24-5.65.82-1.61,2-2.83,3.52-3.66,1.52-.83,3.2-1.25,5.03-1.25,2.07,0,3.82.53,5.23,1.58,1.41,1.06,2.4,2.54,2.95,4.45l-2.7.64c-.48-1.51-1.18-2.61-2.09-3.29-.91-.69-2.06-1.03-3.45-1.03-1.59,0-2.92.38-3.99,1.15-1.07.76-1.82,1.79-2.25,3.08-.43,1.29-.65,2.61-.65,3.98,0,1.76.26,3.3.77,4.62.51,1.31,1.31,2.3,2.4,2.95,1.08.65,2.26.98,3.52.98,1.54,0,2.84-.44,3.9-1.33,1.06-.89,1.79-2.2,2.16-3.94Z"/>
              <path class="cls-6" d="M503.91,50.1v-20.73h14.99v2.45h-12.24v6.35h11.47v2.43h-11.47v7.06h12.72v2.45h-15.47Z"/>
            </g>
          </g>
        </g>
        <g>
          <g>
            <g>
              <g>
                <path class="cls-18" d="M561.27,613.23c.54.61,1.31,1,2.19,1h242.88c1.62,0,2.92-1.31,2.92-2.92v-334.08c0-.74-.28-1.41-.73-1.92l-15.85,15.58v306.77h-215.57l-15.85,15.58Z"/>
                <path class="cls-8" d="M806.34,274.3h-242.88c-1.62,0-2.92,1.31-2.92,2.92v334.08c0,.74.28,1.41.73,1.92l15.85-15.58v-306.77h215.57l15.85-15.58c-.54-.61-1.31-1-2.19-1Z"/>
              </g>
              <rect class="cls-4" x="531.51" y="336.48" width="306.77" height="215.57" transform="translate(1129.16 -240.63) rotate(90)"/>
              <g>
                <path class="cls-15" d="M684.9,257.72c7.22,0,13.34,3.46,15.62,8.29h-15.62v33.16h49.75l-8.29-33.16h-17.08c-2.31-9.46-12.33-16.58-24.37-16.58h0v8.29h0Z"/>
                <path class="cls-11" d="M660.53,266.01h-17.09l-8.29,33.16h49.75v-33.16h-15.62c2.28-4.82,8.4-8.29,15.62-8.29v-8.29c-12.04,0-22.07,7.12-24.37,16.58Z"/>
              </g>
            </g>
            <g>
              <g>
                <path class="cls-15" d="M640.03,523.03h-26.35c-6.46,0-11.7,5.24-11.7,11.7v26.35c0,6.46,5.24,11.7,11.7,11.7h26.35c6.46,0,11.7-5.24,11.7-11.7v-26.35c0-6.46-5.24-11.7-11.7-11.7ZM645.52,560.71c0,3.23-2.62,5.85-5.85,5.85h-25.61c-3.23,0-5.85-2.62-5.85-5.85v-25.61c0-3.23,2.62-5.85,5.85-5.85h25.61c3.23,0,5.85,2.62,5.85,5.85v25.61Z"/>
                <path class="cls-15" d="M640.03,456.7h-26.35c-6.46,0-11.7,5.24-11.7,11.7v26.35c0,6.46,5.24,11.7,11.7,11.7h26.35c6.46,0,11.7-5.24,11.7-11.7v-26.35c0-6.46-5.24-11.7-11.7-11.7ZM645.52,494.38c0,3.23-2.62,5.85-5.85,5.85h-25.61c-3.23,0-5.85-2.62-5.85-5.85v-25.61c0-3.23,2.62-5.85,5.85-5.85h25.61c3.23,0,5.85,2.62,5.85,5.85v25.61Z"/>
                <path class="cls-15" d="M640.03,390.38h-26.35c-6.46,0-11.7,5.24-11.7,11.7v26.35c0,6.46,5.24,11.7,11.7,11.7h26.35c6.46,0,11.7-5.24,11.7-11.7v-26.35c0-6.46-5.24-11.7-11.7-11.7ZM645.52,428.06c0,3.23-2.62,5.85-5.85,5.85h-25.61c-3.23,0-5.85-2.62-5.85-5.85v-25.61c0-3.23,2.62-5.85,5.85-5.85h25.61c3.23,0,5.85,2.62,5.85,5.85v25.61Z"/>
                <path class="cls-15" d="M640.03,324.05h-26.35c-6.46,0-11.7,5.24-11.7,11.7v26.35c0,6.46,5.24,11.7,11.7,11.7h26.35c6.46,0,11.7-5.24,11.7-11.7v-26.35c0-6.46-5.24-11.7-11.7-11.7ZM645.52,361.73c0,3.23-2.62,5.85-5.85,5.85h-25.61c-3.23,0-5.85-2.62-5.85-5.85v-25.61c0-3.23,2.62-5.85,5.85-5.85h25.61c3.23,0,5.85,2.62,5.85,5.85v25.61Z"/>
              </g>
              <g>
                <path class="cls-20" d="M622.57,429.76s-1.65-13.04-9.96-18.06c2.79-.22,4.7-5.35,4.58-8.17,4.37,3.15,8.38,10.82,8.1,12.76,1.51-5.23,8.34-14.62,13.55-20.17,6.16-6.57,12.77-11.99,19.65-16.1-.41,2.12.92,4.03,3.34,5.34-6.89,4.86-14.1,10.63-19.99,18.11-5.88,7.46-9.46,15.34-12.05,22.45-3.71-.02-7.22,3.85-7.22,3.85Z"/>
                <path class="cls-20" d="M622.57,363.43s-1.65-13.04-9.96-18.06c2.79-.22,4.7-5.35,4.58-8.17,4.37,3.15,8.38,10.82,8.1,12.76,1.51-5.23,8.34-14.62,13.55-20.17,6.16-6.57,12.77-11.99,19.65-16.1-.41,2.12.92,4.03,3.34,5.34-6.89,4.86-14.1,10.63-19.99,18.11-5.88,7.46-9.46,15.34-12.05,22.45-3.71-.02-7.22,3.85-7.22,3.85Z"/>
              </g>
            </g>
            <g>
              <path class="cls-15" d="M760.44,352.03h-84.77c-1.78,0-3.22-.98-3.22-2.19v-1.83c0-1.21,1.44-2.19,3.22-2.19h84.77c1.78,0,3.22.98,3.22,2.19v1.83c0,1.21-1.44,2.19-3.22,2.19Z"/>
              <path class="cls-15" d="M760.44,418.36h-84.77c-1.78,0-3.22-.98-3.22-2.19v-1.83c0-1.21,1.44-2.19,3.22-2.19h84.77c1.78,0,3.22.98,3.22,2.19v1.83c0,1.21-1.44,2.19-3.22,2.19Z"/>
              <path class="cls-15" d="M760.44,484.68h-84.77c-1.78,0-3.22-.98-3.22-2.19v-1.83c0-1.21,1.44-2.19,3.22-2.19h84.77c1.78,0,3.22.98,3.22,2.19v1.83c0,1.21-1.44,2.19-3.22,2.19Z"/>
              <path class="cls-15" d="M760.44,551.01h-84.77c-1.78,0-3.22-.98-3.22-2.19v-1.83c0-1.21,1.44-2.19,3.22-2.19h84.77c1.78,0,3.22.98,3.22,2.19v1.83c0,1.21-1.44,2.19-3.22,2.19Z"/>
            </g>
          </g>
          <g>
            <path id="shine" class="cls-2" d="M220.73,362.15c3.92-25.47-13.55-49.29-39.01-53.21"/>
            <path class="cls-3" d="M1.27,511.23l17.53,17.53c1.59,1.59,4.04,1.7,5.49.26l92.43-92.43c1.44-1.44,1.33-3.9-.26-5.49l-3.81-3.81,7.33-7.33c6.36,5.34,13.45,9.62,21.17,12.75,9.54,3.87,19.62,5.83,29.96,5.83,10.34,0,20.41-1.96,29.96-5.83,9.89-4.01,18.75-9.89,26.35-17.49,7.6-7.6,13.48-16.46,17.49-26.35,3.87-9.54,5.83-19.62,5.83-29.96s-1.96-20.41-5.83-29.96c-4.01-9.89-9.89-18.75-17.49-26.35-7.6-7.6-16.46-13.48-26.35-17.49-9.54-3.87-19.62-5.83-29.96-5.83-10.34,0-20.41,1.96-29.96,5.83-9.89,4.01-18.75,9.89-26.35,17.49-7.6,7.6-13.48,16.46-17.49,26.35-3.87,9.54-5.83,19.62-5.83,29.96,0,10.34,1.96,20.41,5.83,29.96,3.13,7.72,7.41,14.81,12.75,21.17l-7.33,7.33-3.81-3.81c-1.59-1.59-4.04-1.7-5.49-.26L1.01,505.74c-1.44,1.44-1.33,3.9.26,5.49ZM124.66,312.45c8.31-8.31,18.28-13.92,28.85-16.85.28-.08.55-.15.83-.22,1.19-.31,2.39-.59,3.6-.84.4-.08.8-.16,1.2-.23.69-.13,1.37-.24,2.06-.35.75-.11,1.49-.22,2.24-.3.93-.11,1.87-.2,2.81-.27,1.62-.12,3.25-.18,4.87-.18h0c16.81,0,33.63,6.41,46.46,19.24,1.15,1.15,2.24,2.33,3.29,3.54.51.59,1,1.18,1.49,1.79.43.54.86,1.09,1.27,1.64.65.86,1.28,1.74,1.88,2.63.3.44.59.88.88,1.32.68,1.05,1.32,2.12,1.94,3.2.08.15.17.29.25.44,13.89,25,10.23,57.13-11,78.36-3.61,3.61-7.53,6.71-11.68,9.3-.66.41-1.32.8-1.99,1.19-.74.43-1.48.84-2.23,1.23-21.8,11.45-48.68,9.81-69.02-4.91-.24-.17-.47-.34-.7-.52-1.14-.85-2.27-1.75-3.37-2.68-.13-.11-.25-.22-.38-.32-1.21-1.05-2.39-2.14-3.54-3.29-25.66-25.66-25.66-67.26,0-92.92Z"/>
            <g id="glass">
              <g id="glass-2" data-name="glass" class="cls-14">
                <circle class="cls-7" cx="171.11" cy="358.91" r="65.7"/>
              </g>
            </g>
          </g>
        </g>
      </g>
    </g>
  </g>
</svg>