<?xml version="1.0" encoding="UTF-8"?>
<svg id="Layer_1" xmlns="http://www.w3.org/2000/svg" viewBox="0 0 247.08 344.24">
  <defs>
    <style>
      .cls-1 {
        fill: #364d5c;
      }

      .cls-2 {
        fill: #ebebeb;
      }

      .cls-3 {
        letter-spacing: 0em;
      }

      .cls-4, .cls-5 {
        fill: #fff;
      }

      .cls-6 {
        opacity: .2;
      }

      .cls-7 {
        fill: #c1c6c7;
      }

      .cls-8 {
        letter-spacing: -.07em;
      }

      .cls-5 {
        font-family: Arial-BoldMT, Arial;
        font-size: 28.55px;
        font-weight: 700;
      }

      .cls-9 {
        fill: #abafb0;
      }
    </style>
  </defs>
  <g>
    <polygon class="cls-2" points="20.67 193.37 246.63 193.33 228.3 105.91 2.33 105.94 20.67 193.37"/>
    <polygon class="cls-4" points="21.11 0 247.08 .03 228.3 106.03 2.33 106 21.11 0"/>
    <polygon class="cls-6" points="245.65 197.8 225.86 302.3 224.18 302.3 223.67 301.84 209.59 284.93 182.74 301.4 182.24 301.39 178.42 301.39 163.25 284.92 137.96 301.39 133.81 301.39 119.17 284.92 93.35 301.39 89.11 301.39 73.93 284.92 47.6 301.39 43.8 301.39 28.69 284.57 3.01 301.39 0 301.39 1.42 294.42 20.57 197.8 245.65 197.8"/>
    <polygon class="cls-4" points="246.63 193.26 226.76 297.76 225.08 297.76 224.56 297.3 210.42 280.38 183.47 296.86 182.97 296.85 179.13 296.85 163.9 280.38 138.51 296.85 134.34 296.85 119.65 280.38 93.72 296.85 89.46 296.85 74.23 280.38 47.79 296.85 43.97 296.85 28.81 280.03 3.02 296.85 0 296.85 1.42 289.88 20.66 193.26 246.63 193.26"/>
    <polygon class="cls-7" points="203.52 57.56 43.38 57.56 41.85 66.04 201.99 66.04 203.52 57.56"/>
    <polygon class="cls-7" points="209.05 32.53 48.92 32.53 47.39 41.01 207.53 41.01 209.05 32.53"/>
    <polygon class="cls-7" points="198.13 81.8 38 81.8 36.47 90.28 196.6 90.28 198.13 81.8"/>
    <polygon class="cls-7" points="117.47 204.59 39.28 204.59 37.98 213.06 116.32 213.06 117.47 204.59"/>
    <polygon class="cls-7" points="112.78 227.61 34.59 227.61 33.28 236.09 111.63 236.09 112.78 227.61"/>
    <polygon class="cls-9" points="30.42 124.01 202.74 124.01 204.52 132.49 32.2 132.49 30.42 124.01"/>
    <polygon class="cls-9" points="35.18 148.88 207.28 148.88 209.05 157.36 36.96 157.36 35.18 148.88"/>
    <polygon class="cls-9" points="40.66 174.33 212.75 174.33 214.53 182.8 42.44 182.8 40.66 174.33"/>
    <path class="cls-1" d="M195.01,258.39l2.04-17.7c-4.57-2.32-7.78-5.24-9.64-8.79-1.85-3.54-2.51-7.59-1.99-12.16.53-4.62,2.23-8.31,5.1-11.06,2.87-2.75,6.42-4.04,10.65-3.87l.48-4.18,5.28.82-.48,4.18c3.8,1.13,6.69,3.14,8.68,6.01,1.99,2.88,3.06,6.47,3.2,10.8l-9.37-.03c-.18-3.41-1.37-5.89-3.59-7.44l-1.9,16.52c5.61,2.73,9.3,5.72,11.08,8.96,1.77,3.24,2.4,7.15,1.87,11.71-.59,5.1-2.41,9.19-5.47,12.27-3.06,3.08-7,4.65-11.82,4.7l-.91,7.9-5.28-.82.88-7.69c-4.13-1.24-7.33-3.59-9.6-7.04-2.27-3.45-3.45-8.01-3.54-13.67l9.63.29c.13,2.32.63,4.37,1.51,6.17.88,1.8,1.93,3.17,3.16,4.1ZM200.12,214.02c-1.5.34-2.75,1.12-3.75,2.34-1,1.22-1.6,2.65-1.79,4.28-.17,1.49.06,2.94.69,4.34.63,1.4,1.69,2.62,3.17,3.65l1.68-14.62ZM200.22,259.8c1.86-.11,3.46-.86,4.78-2.25,1.32-1.39,2.1-3.14,2.34-5.25.22-1.89-.07-3.59-.88-5.1-.8-1.52-2.25-2.81-4.35-3.88l-1.9,16.48Z"/>
  </g>
  <text class="cls-5" transform="translate(4.38 333.5)"><tspan x="0" y="0">PRE-</tspan><tspan class="cls-8" x="68.22" y="0">V</tspan><tspan class="cls-3" x="85.14" y="0">ALID</tspan><tspan class="cls-8" x="151.76" y="0">A</tspan><tspan x="170.26" y="0">TION</tspan></text>
</svg>