<?xml version="1.0" encoding="UTF-8"?>
<svg id="Layer_1" xmlns="http://www.w3.org/2000/svg" viewBox="0 0 702 442">
  <defs>
    <style>
      .cls-1 {
        fill: none;
        stroke: #ffb275;
        stroke-linecap: round;
        stroke-miterlimit: 10;
        stroke-width: 3.59px;
      }

      .cls-2 {
        fill: #b7dbff;
      }

      .cls-3 {
        fill: #f58423;
      }

      .cls-4 {
        fill: #3a4b6f;
      }

      .cls-5 {
        fill: #5f942d;
      }

      .cls-6 {
        fill: #e6e7e7;
      }

      .cls-7, .cls-8 {
        fill: #fff;
      }

      .cls-9 {
        fill: #85c4f9;
      }

      .cls-10 {
        letter-spacing: 0em;
      }

      .cls-11 {
        fill: #deefff;
      }

      .cls-12 {
        opacity: .2;
      }

      .cls-13 {
        fill: #a2a2a2;
      }

      .cls-14 {
        letter-spacing: -.07em;
      }

      .cls-15 {
        letter-spacing: -.09em;
      }

      .cls-16 {
        letter-spacing: -.09em;
      }

      .cls-17 {
        fill: #a33833;
      }

      .cls-18 {
        fill: #2f4452;
      }

      .cls-19 {
        fill: #b8babf;
      }

      .cls-20 {
        fill: #657c5c;
      }

      .cls-8 {
        font-family: Arial-BoldMT, Arial;
        font-size: 28.55px;
        font-weight: 700;
      }

      .cls-21 {
        fill: #97c451;
      }
    </style>
  </defs>
  <rect class="cls-17" x="180.5" width="341" height="122" rx="22.64" ry="22.64"/>
  <g>
    <text class="cls-8" transform="translate(305.85 52.74)"><tspan class="cls-14" x="0" y="0">P</tspan><tspan class="cls-15" x="16.93" y="0">A</tspan><tspan class="cls-10" x="34.92" y="0">YMENT </tspan><tspan x="0" y="34.26">PROCESS</tspan></text>
    <path class="cls-7" d="M268.44,77.85v-15.08c-4.7-1.34-8.15-3.38-10.35-6.1-2.2-2.72-3.29-6.03-3.29-9.92s1.24-7.24,3.73-9.92c2.48-2.68,5.79-4.22,9.92-4.63v-3.56h5.22v3.56c3.82.46,6.85,1.76,9.11,3.91s3.7,5.02,4.32,8.62l-9.11,1.19c-.55-2.83-1.99-4.75-4.32-5.76v14.08c5.76,1.56,9.68,3.58,11.77,6.07,2.09,2.48,3.13,5.67,3.13,9.56,0,4.34-1.31,8-3.94,10.98-2.63,2.98-6.28,4.8-10.96,5.47v6.73h-5.22v-6.55c-4.15-.5-7.52-2.05-10.12-4.64s-4.25-6.25-4.97-10.98l9.4-1.01c.38,1.92,1.1,3.58,2.16,4.97s2.23,2.4,3.53,3.02ZM268.44,40.05c-1.42.48-2.54,1.3-3.38,2.45-.84,1.15-1.26,2.42-1.26,3.82,0,1.27.38,2.45,1.15,3.55.77,1.09,1.93,1.97,3.49,2.65v-12.45ZM273.66,78.35c1.8-.34,3.26-1.17,4.39-2.5,1.13-1.33,1.69-2.9,1.69-4.7,0-1.61-.47-2.99-1.42-4.16-.95-1.16-2.5-2.06-4.66-2.68v14.04Z"/>
  </g>
  <g>
    <rect class="cls-4" y="152" width="333" height="290" rx="22.64" ry="22.64"/>
    <rect class="cls-20" x="369" y="152" width="333" height="290" rx="22.64" ry="22.64"/>
    <text class="cls-8" transform="translate(32.19 203.79)"><tspan class="cls-14" x="0" y="0">P</tspan><tspan class="cls-15" x="16.93" y="0">A</tspan><tspan class="cls-10" x="34.92" y="0">YMENT</tspan><tspan x="0" y="34.26">QUEUE</tspan></text>
    <text class="cls-8" transform="translate(400.19 204.17)"><tspan x="0" y="0">DOCUMENT</tspan><tspan x="0" y="34.26">PENDING </tspan><tspan class="cls-14" x="138.02" y="34.26">P</tspan><tspan class="cls-16" x="154.95" y="34.26">A</tspan><tspan class="cls-10" x="172.95" y="34.26">YMENT</tspan></text>
    <g>
      <path class="cls-19" d="M637.33,259.01c-7.67,0-13.86,3.88-14.11,13.74v8.76s27.98,0,27.98,0v-8.48c0-3.87-1.56-7.38-4.07-9.92-2.51-2.53-5.98-4.1-9.81-4.1Z"/>
      <polygon class="cls-12" points="502.38 321.42 502.38 422 513.74 412.67 526.18 422 538.16 412.67 550.91 422 562.57 412.67 575.01 422 586.37 412.67 599.12 422 611.41 412.67 623.22 422 623.22 321.42 502.38 321.42"/>
      <polygon class="cls-6" points="502.38 273.13 502.38 419.2 513.74 409.87 526.18 419.2 538.16 409.87 550.91 419.2 562.57 409.87 575.01 419.2 586.37 409.87 599.12 419.2 611.41 409.87 623.22 419.2 623.22 273.13 502.38 273.13"/>
      <path class="cls-7" d="M506.72,262.99c-2.49,2.34-4.09,5.45-4.33,8.96v1.92h120.83c.22-1.43-.43-14.87,15.01-14.87h-122.69c-3.43.35-6.49,1.81-8.82,3.99Z"/>
      <g>
        <rect class="cls-13" x="521.37" y="287.42" width="85.37" height="5.41"/>
        <rect class="cls-13" x="521.37" y="301.6" width="85.37" height="5.41"/>
        <rect class="cls-13" x="521.37" y="316.53" width="85.37" height="5.41"/>
        <rect class="cls-13" x="521.37" y="331.46" width="85.37" height="5.41"/>
        <rect class="cls-13" x="521.37" y="348.88" width="50.07" height="5.41"/>
        <rect class="cls-13" x="521.37" y="366.3" width="50.07" height="5.41"/>
        <rect class="cls-13" x="521.37" y="384.47" width="50.07" height="5.41"/>
      </g>
      <path class="cls-18" d="M593.92,386.79v-13.83c-4.31-1.23-7.48-3.1-9.49-5.6-2.01-2.5-3.02-5.53-3.02-9.1s1.14-6.64,3.42-9.1c2.28-2.45,5.31-3.87,9.1-4.24v-3.27h4.79v3.27c3.5.42,6.28,1.61,8.35,3.58,2.07,1.97,3.39,4.61,3.96,7.91l-8.35,1.09c-.51-2.6-1.83-4.36-3.96-5.28v12.91c5.28,1.43,8.88,3.29,10.8,5.56,1.91,2.28,2.87,5.2,2.87,8.77,0,3.98-1.2,7.34-3.61,10.07-2.41,2.73-5.76,4.4-10.05,5.02v6.17h-4.79v-6.01c-3.81-.46-6.9-1.88-9.28-4.26-2.38-2.38-3.9-5.73-4.56-10.07l8.62-.92c.35,1.76,1.01,3.28,1.98,4.56.97,1.28,2.05,2.2,3.23,2.77ZM593.92,352.12c-1.3.44-2.33,1.19-3.1,2.25-.77,1.06-1.16,2.22-1.16,3.5,0,1.17.35,2.25,1.06,3.25.7,1,1.77,1.81,3.2,2.43v-11.42ZM598.7,387.25c1.65-.31,2.99-1.07,4.03-2.29,1.03-1.22,1.55-2.66,1.55-4.31,0-1.47-.44-2.75-1.3-3.81-.87-1.07-2.29-1.89-4.28-2.46v12.88Z"/>
    </g>
    <g>
      <path class="cls-19" d="M277.33,259.01c-7.67,0-13.86,3.88-14.11,13.74v8.76s27.98,0,27.98,0v-8.48c0-3.87-1.56-7.38-4.07-9.92-2.51-2.53-5.98-4.1-9.81-4.1Z"/>
      <polygon class="cls-12" points="142.38 321.42 142.38 422 153.74 412.67 166.18 422 178.16 412.67 190.91 422 202.57 412.67 215.01 422 226.37 412.67 239.12 422 251.41 412.67 263.22 422 263.22 321.42 142.38 321.42"/>
      <polygon class="cls-6" points="142.38 273.13 142.38 419.2 153.74 409.87 166.18 419.2 178.16 409.87 190.91 419.2 202.57 409.87 215.01 419.2 226.37 409.87 239.12 419.2 251.41 409.87 263.22 419.2 263.22 273.13 142.38 273.13"/>
      <path class="cls-7" d="M146.72,262.99c-2.49,2.34-4.09,5.45-4.33,8.96v1.92h120.83c.22-1.43-.43-14.87,15.01-14.87h-122.69c-3.43.35-6.49,1.81-8.82,3.99Z"/>
      <g>
        <rect class="cls-13" x="161.37" y="287.42" width="85.37" height="5.41"/>
        <rect class="cls-13" x="161.37" y="301.6" width="85.37" height="5.41"/>
        <rect class="cls-13" x="161.37" y="316.53" width="85.37" height="5.41"/>
        <rect class="cls-13" x="161.37" y="331.46" width="85.37" height="5.41"/>
        <rect class="cls-13" x="161.37" y="348.88" width="50.07" height="5.41"/>
        <rect class="cls-13" x="161.37" y="366.3" width="50.07" height="5.41"/>
        <rect class="cls-13" x="161.37" y="384.47" width="50.07" height="5.41"/>
      </g>
      <path class="cls-18" d="M233.92,386.79v-13.83c-4.31-1.23-7.48-3.1-9.49-5.6-2.01-2.5-3.02-5.53-3.02-9.1s1.14-6.64,3.42-9.1c2.28-2.45,5.31-3.87,9.1-4.24v-3.27h4.79v3.27c3.5.42,6.28,1.61,8.35,3.58,2.07,1.97,3.39,4.61,3.96,7.91l-8.35,1.09c-.51-2.6-1.83-4.36-3.96-5.28v12.91c5.28,1.43,8.88,3.29,10.8,5.56,1.91,2.28,2.87,5.2,2.87,8.77,0,3.98-1.2,7.34-3.61,10.07-2.41,2.73-5.76,4.4-10.05,5.02v6.17h-4.79v-6.01c-3.81-.46-6.9-1.88-9.28-4.26-2.38-2.38-3.9-5.73-4.56-10.07l8.62-.92c.35,1.76,1.01,3.28,1.98,4.56.97,1.28,2.05,2.2,3.23,2.77ZM233.92,352.12c-1.3.44-2.33,1.19-3.1,2.25-.77,1.06-1.16,2.22-1.16,3.5,0,1.17.35,2.25,1.06,3.25.7,1,1.77,1.81,3.2,2.43v-11.42ZM238.7,387.25c1.65-.31,2.99-1.07,4.03-2.29,1.03-1.22,1.55-2.66,1.55-4.31,0-1.47-.44-2.75-1.3-3.81-.87-1.07-2.29-1.89-4.28-2.46v12.88Z"/>
    </g>
    <g>
      <g>
        <rect class="cls-21" x="416.93" y="319" width="127.18" height="71.36"/>
        <rect class="cls-5" x="450.47" y="296.71" width="60.11" height="115.93" transform="translate(835.2 -125.84) rotate(90)"/>
        <rect class="cls-21" x="428.18" y="330.24" width="104.69" height="48.87"/>
        <path class="cls-5" d="M442.08,330.24c-.13,7.57-6.3,13.66-13.9,13.66v-13.66h13.9Z"/>
        <path class="cls-5" d="M532.87,344.14c-7.57-.13-13.66-6.3-13.66-13.9h13.66v13.9Z"/>
        <path class="cls-5" d="M518.96,379.12c.13-7.57,6.3-13.66,13.9-13.66v13.66h-13.9Z"/>
        <path class="cls-5" d="M428.18,365.21c7.57.13,13.66,6.3,13.66,13.9h-13.66v-13.9Z"/>
        <circle class="cls-5" cx="480.52" cy="354.68" r="20.11"/>
        <circle class="cls-5" cx="516.15" cy="354.68" r="5.82"/>
        <circle class="cls-5" cx="444.89" cy="354.68" r="5.82" transform="translate(.3 709.74) rotate(-77.17)"/>
      </g>
      <path class="cls-21" d="M489.17,359.29c0-3.74-1.97-5.85-7.21-7.32-3.75-1.06-4.58-1.74-4.58-3.28,0-1.08.64-2.41,2.89-2.41,2.68,0,3.14,1.58,3.39,2.55h4.98c-.26-2.73-1.81-5.43-6.17-6.09v-2.25h-4.17v2.29c-3.33.63-5.94,2.84-5.94,6.4,0,3.3,1.73,5.49,7.66,7.19,3.25.93,4.17,1.77,4.17,3.49,0,1.4-.83,2.65-3.42,2.65-2.1,0-3.49-1.14-3.9-2.95h-4.98c.27,3.39,2.6,5.87,6.66,6.48v2.82h4.2v-2.82c3.85-.58,6.43-2.79,6.43-6.75Z"/>
    </g>
    <g>
      <path class="cls-2" d="M118.79,407.36h-52.26s-.07-2.59.27-6.64c.9-10.7,4.64-31.58,20.06-41.8.65-.43.65-1.38,0-1.81-21.26-14.09-20.33-48.45-20.33-48.45h52.26s.93,34.36-20.33,48.45c-.65.43-.65,1.38,0,1.81,15.42,10.22,19.16,31.1,20.06,41.8.34,4.05.27,6.64.27,6.64Z"/>
      <rect class="cls-3" x="60.97" y="298" width="63.39" height="10.65" rx="5.32" ry="5.32"/>
      <path class="cls-9" d="M115.76,403.41c-.07-1.63-1.11-3.07-2.63-3.66l-18.91-7.36h0v-24.39c0-11.58,3.71-14.18,3.71-14.18h-.04c6.35-4.41,10.19-11.07,12.52-17.66.33-.94-.37-1.93-1.37-1.93h-32.78c-1,0-1.7.99-1.37,1.93,2.33,6.58,6.18,13.25,12.52,17.66,0,0,3.71,2.6,3.71,14.18v24.37l-18.95,7.38c-1.52.59-2.56,2.03-2.63,3.66-.11,2.47-.08,3.94-.08,3.94h46.35s.04-1.48-.08-3.94Z"/>
      <path class="cls-3" d="M63.47,407.36h58.39c1.38,0,2.5,1.12,2.5,2.5v5.64c0,1.38-1.12,2.5-2.5,2.5h-58.39c-1.38,0-2.5-1.12-2.5-2.5v-5.64c0-1.38,1.12-2.5,2.5-2.5Z"/>
      <path class="cls-11" d="M72.41,323.24c-.94,0-1.79-.66-1.99-1.62-.82-4-1.2-9.29-1.22-9.51-.08-1.12.77-2.09,1.88-2.17,1.12-.08,2.09.77,2.17,1.88,0,.05.38,5.25,1.14,8.98.23,1.1-.48,2.17-1.58,2.4-.14.03-.28.04-.41.04Z"/>
      <path class="cls-11" d="M74.53,331.45c-.89,0-1.71-.59-1.96-1.49l-.81-2.9c-.3-1.08.33-2.2,1.41-2.5,1.08-.3,2.2.33,2.5,1.41l.81,2.9c.3,1.08-.33,2.2-1.41,2.5-.18.05-.37.08-.55.08Z"/>
      <g>
        <line class="cls-1" x1="105.03" y1="414.25" x2="118.87" y2="414.25"/>
        <line class="cls-1" x1="95.4" y1="414.25" x2="99.94" y2="414.25"/>
      </g>
    </g>
  </g>
</svg>