<?xml version="1.0" encoding="UTF-8"?>
<svg id="Layer_1" xmlns="http://www.w3.org/2000/svg" viewBox="0 0 331.02 260.41">
  <defs>
    <style>
      .cls-1 {
        fill: #d3d2e0;
      }

      .cls-2 {
        fill: #667e82;
      }

      .cls-3 {
        fill: #dbbda9;
      }

      .cls-4 {
        fill: #363636;
      }

      .cls-5 {
        fill: #4d4d4d;
      }

      .cls-6 {
        fill: #7890a0;
      }

      .cls-7 {
        fill: #edfaff;
      }

      .cls-8, .cls-9 {
        fill: #fff;
      }

      .cls-10 {
        fill: #99a9ab;
      }

      .cls-11 {
        fill: #f4bc3a;
      }

      .cls-12 {
        fill: #b3b3b3;
      }

      .cls-9 {
        font-family: Arial-BoldMT, Arial;
        font-size: 28.55px;
        font-weight: 700;
      }

      .cls-13 {
        fill: #333;
      }

      .cls-14 {
        fill: #1a1a1a;
      }

      .cls-15 {
        fill: #d6dddd;
        opacity: .49;
      }

      .cls-16 {
        fill: #3b1c0c;
      }
    </style>
  </defs>
  <g>
    <g>
      <g>
        <path class="cls-1" d="M201.52,195.46l-12.99-28.98h-45.22l-12.99,28.98c-1.71,2.83.77,9.73,5.16,10.08.27.02.54.03.82.03h59.25c.28,0,.55-.01.82-.03,4.39-.36,6.87-7.25,5.16-10.08Z"/>
        <g>
          <rect class="cls-12" x="26.84" y=".63" width="278.18" height="165.85" rx="7.01" ry="7.01"/>
          <rect class="cls-10" x="36.98" y="10.67" width="257.89" height="145.78" rx="3.31" ry="3.31"/>
          <path class="cls-2" d="M292.44,156.88H39.41c-1.58,0-2.87-1.29-2.87-2.87V13.1c0-1.58,1.29-2.87,2.87-2.87h253.03c1.58,0,2.87,1.29,2.87,2.87v140.91c0,1.58-1.29,2.87-2.87,2.87ZM39.41,11.11c-1.1,0-2,.9-2,2v140.91c0,1.1.89,2,2,2h253.03c1.1,0,2-.9,2-2V13.1c0-1.1-.89-2-2-2H39.41Z"/>
        </g>
      </g>
      <rect class="cls-7" x="40.32" y="12.99" width="251.2" height="140.86"/>
      <path class="cls-15" d="M40.77,154.34c.59.76,251.64-.5,251.64-.5V13.7c0-.46-.1-.9-.27-1.29L40.77,154.34Z"/>
      <rect class="cls-6" x="157.8" y="31.77" width="84.62" height="1.75"/>
      <rect class="cls-6" x="247.68" y="31.77" width="29.81" height="1.75"/>
      <rect class="cls-6" x="157.8" y="37.8" width="119.69" height="1.75"/>
      <rect class="cls-6" x="157.8" y="43.82" width="119.69" height="1.75"/>
      <rect class="cls-11" x="157.8" y="49.85" width="39.46" height="1.75"/>
      <rect class="cls-6" x="203.4" y="49.85" width="74.1" height="1.75"/>
      <rect class="cls-6" x="157.8" y="55.87" width="119.69" height="1.75"/>
      <rect class="cls-6" x="157.8" y="61.9" width="82.86" height="1.75"/>
      <rect class="cls-11" x="249.44" y="61.9" width="28.06" height="1.75"/>
      <rect class="cls-6" x="157.8" y="67.93" width="119.69" height="1.75"/>
      <rect class="cls-6" x="157.8" y="73.95" width="119.69" height="1.75"/>
      <rect class="cls-6" x="157.8" y="79.98" width="55.24" height="1.75"/>
      <rect class="cls-6" x="220.06" y="79.98" width="57.43" height="1.75"/>
      <rect class="cls-6" x="157.8" y="86" width="119.69" height="1.75"/>
      <rect class="cls-6" x="157.8" y="92.03" width="119.69" height="1.75"/>
      <rect class="cls-6" x="157.8" y="98.06" width="80.23" height="1.75"/>
      <rect class="cls-11" x="244.62" y="98.06" width="32.88" height="1.75"/>
      <rect class="cls-6" x="157.8" y="104.08" width="119.69" height="1.75"/>
      <g>
        <rect class="cls-6" x="241.11" y="111.68" width="35.51" height=".65"/>
        <rect class="cls-6" x="241.11" y="114.26" width="35.51" height=".65"/>
        <rect class="cls-6" x="241.11" y="116.84" width="35.51" height=".65"/>
        <rect class="cls-6" x="241.11" y="119.43" width="35.51" height=".65"/>
        <rect class="cls-6" x="241.11" y="122.01" width="35.51" height=".65"/>
        <rect class="cls-6" x="241.11" y="124.59" width="35.51" height=".65"/>
        <rect class="cls-6" x="241.11" y="127.17" width="35.51" height=".65"/>
        <rect class="cls-6" x="241.11" y="129.76" width="35.51" height=".65"/>
        <rect class="cls-6" x="241.11" y="132.34" width="35.51" height=".65"/>
        <rect class="cls-6" x="241.11" y="134.92" width="35.51" height=".65"/>
        <rect class="cls-6" x="241.11" y="137.5" width="35.51" height=".65"/>
        <rect class="cls-6" x="241.11" y="140.09" width="35.51" height=".65"/>
        <rect class="cls-6" x="241.11" y="142.67" width="35.51" height=".65"/>
      </g>
      <g>
        <rect class="cls-6" x="63.98" y="34.51" width="51.46" height=".65"/>
        <rect class="cls-6" x="63.98" y="37.1" width="51.46" height=".65"/>
        <rect class="cls-6" x="63.98" y="39.68" width="51.46" height=".65"/>
        <rect class="cls-6" x="63.98" y="42.26" width="51.46" height=".65"/>
        <rect class="cls-6" x="63.98" y="44.84" width="51.46" height=".65"/>
        <rect class="cls-6" x="63.98" y="47.43" width="51.46" height=".65"/>
        <rect class="cls-6" x="63.98" y="50.01" width="51.46" height=".65"/>
        <rect class="cls-6" x="63.98" y="52.59" width="51.46" height=".65"/>
        <rect class="cls-6" x="63.98" y="55.17" width="51.46" height=".65"/>
        <rect class="cls-6" x="63.98" y="57.76" width="51.46" height=".65"/>
        <rect class="cls-6" x="63.98" y="60.34" width="51.46" height=".65"/>
        <rect class="cls-6" x="63.98" y="62.92" width="51.46" height=".65"/>
        <rect class="cls-6" x="63.98" y="65.5" width="51.46" height=".65"/>
      </g>
      <g>
        <rect class="cls-6" x="63.98" y="67.84" width="51.46" height=".65"/>
        <rect class="cls-6" x="63.98" y="70.42" width="51.46" height=".65"/>
        <rect class="cls-6" x="63.98" y="73" width="51.46" height=".65"/>
        <rect class="cls-6" x="63.98" y="75.58" width="51.46" height=".65"/>
        <rect class="cls-6" x="63.98" y="78.17" width="51.46" height=".65"/>
        <rect class="cls-6" x="63.98" y="80.75" width="51.46" height=".65"/>
        <rect class="cls-6" x="63.98" y="83.33" width="51.46" height=".65"/>
        <rect class="cls-6" x="63.98" y="85.91" width="51.46" height=".65"/>
        <rect class="cls-6" x="63.98" y="88.5" width="51.46" height=".65"/>
        <rect class="cls-6" x="63.98" y="91.08" width="51.46" height=".65"/>
        <rect class="cls-6" x="63.98" y="93.66" width="51.46" height=".65"/>
        <rect class="cls-6" x="63.98" y="96.24" width="51.46" height=".65"/>
        <rect class="cls-6" x="63.98" y="98.83" width="51.46" height=".65"/>
      </g>
    </g>
    <rect class="cls-16" x="26" y="201.73" width="278.84" height="14.03"/>
    <rect class="cls-8" x="63.44" y="195.04" width="189.03" height="5.94"/>
    <g>
      <path class="cls-3" d="M206.11,55.64c-.8-1.55-1.96-2.68-3.44-3.15-.55,3.72-1.69.15-2.99-3.18-1.93-4.93-7.14-8.87-10.71-12.66-1.95-2.06-3.79-4.14-5.95-5.91-6.25,3.26-24.89,3.26-31.14,0-2.16,1.77-4,3.84-5.95,5.91-3.57,3.79-8.78,7.73-10.71,12.66-1.31,3.34-2.44,6.9-2.99,3.18-1.48.46-2.64,1.6-3.44,3.15-2.81,5.42-1.2,15.91,6.8,20.39,1.4.78,3.25,5.25,4.33,6.8,1.94,2.8,4.03,5.5,6.25,8.08,3.99,4.63,8.44,9.46,13.85,12.45,7.22,4,16.84.93,21.97-5.13,6.24-7.38,12.42-13.8,17.32-22.2,8-4.48,9.61-14.97,6.8-20.39Z"/>
      <path class="cls-4" d="M210.74,36.24c-.25-1.46-.56-2.93-1.08-4.31-2.95-7.95-6.34-15.05-14.12-19.4-.52-.29-3.94-2.6-4.5-2.17,1.3-1.01,4.67-1.25,4.67-1.25,0,0-3.56-3-9.72-3.04,2.3-1.59,3.28-1.04,4.92-1.56-4.15-2.07-6.31-2.78-8.85-3.32-14.94-3.15-31.24-.01-43.03,9.97-12.59,10.64-20.55,29.68-10.24,44.5.8-1.55,1.96-2.68,3.44-3.14.87,5.83,2.9,11.39,4.87,16.91,2.29,6.4,4.55,12.92,7.67,18.99,1.79,3.48,4.03,6.8,7,9.38,8.16,7.08,23.14,7.11,31.35,0,2.97-2.58,5.21-5.9,7-9.38,3.12-6.07,5.38-12.59,7.67-18.99,1.98-5.52,4.01-11.08,4.87-16.91,1.48.46,2.64,1.6,3.44,3.14,3.86-5.55,5.8-12.64,4.63-19.41Z"/>
      <path class="cls-6" d="M279.21,177.25c-2.44-5.35-43.92-56.06-50.52-59.18-6.25-2.95-13.32-3.1-19.93-4.76-4.92-1.24-9.15-1.8-11.36-6.91-1.58-3.65-1.91-8.65.38-12.09.3-.46.67-.9.78-1.43.28-1.28-.94-2.42-2.19-2.84-2.42-.81-4.49-1.79-7.03-1.85-2.96-.08-5.93-.47-8.89-.62-.82-.04-1.65-.06-2.47-.09v-.15c-1.02,0-2.04-.03-3.07-.02-1.16.01-2.58-.13-3.87-.05-1.1-.07-2.28.02-3.32.04-1.04-.02-2.22-.11-3.32-.04-1.29-.08-2.71.06-3.87.05-1.02,0-2.04.01-3.07.02v.15c-.82.03-1.65.05-2.47.09-2.96.15-5.93.54-8.89.62-2.53.07-4.6,1.04-7.03,1.85-1.24.42-2.47,1.56-2.19,2.84.12.54.48.98.78,1.43,2.3,3.44,1.96,8.44.38,12.09-2.21,5.11-6.44,5.68-11.36,6.91-6.61,1.66-13.68,1.82-19.93,4.76-6.6,3.11-48.08,53.82-50.52,59.18-2.05,4.51,3.09,15.88,4.84,20.57,2.51,6.7,12.44,4.43,17.71,1.84,3.26-1.61,8.29-4.34,10.73-7,5.51-6.01,16.11-18.38,20.95-24.94.31-.42,9.57,33.25,9.57,33.25h95.34s9.26-33.68,9.57-33.25c4.84,6.56,15.44,18.93,20.95,24.94,2.44,2.66,7.47,5.4,10.73,7,5.27,2.59,15.2,4.86,17.71-1.84,1.75-4.69,6.9-16.06,4.84-20.57Z"/>
    </g>
    <g>
      <path class="cls-13" d="M168.62,127.8v35.13h3.56c3.57,0,6.48,2.92,6.48,6.48v46.83h53.6l-2.91-69.89c0-22.57-13.52-32.91-34.99-32.91h-50.55c-7.93,0,24.81,6.43,24.81,14.36Z"/>
      <path d="M158.09,216.24v-46.83c0-3.57,2.92-6.48,6.48-6.48h4.04v-35.13c0-7.93-3.34-14.36-24.81-14.36s-34.99,10.34-34.99,32.91l-2.91,69.89h52.19Z"/>
      <g>
        <path class="cls-5" d="M178.66,216.24v-46.83c0-3.57-2.92-6.48-6.48-6.48h-3.56v53.31h10.04Z"/>
        <path class="cls-14" d="M168.62,216.24v-53.31h-4.04c-3.57,0-6.48,2.92-6.48,6.48v46.83h10.52Z"/>
      </g>
    </g>
  </g>
  <text class="cls-9" transform="translate(10.71 252.48)"><tspan x="0" y="0">INVOICE PROCESSOR</tspan></text>
</svg>