<?xml version="1.0" encoding="UTF-8"?>
<svg id="Layer_1" data-name="Layer 1" xmlns="http://www.w3.org/2000/svg" viewBox="0 0 196 219.55">
  <defs>
    <style>
      .cls-1 {
        fill: #243558;
      }

      .cls-2 {
        fill: #fff;
        font-family: Arial-BoldMT, Arial;
        font-size: 20.72px;
        font-weight: 700;
      }

      .cls-3 {
        stroke: #f4bc3a;
        stroke-width: 5px;
      }

      .cls-3, .cls-4 {
        fill: none;
        stroke-miterlimit: 10;
      }

      .cls-5 {
        fill: #8f96a6;
      }

      .cls-4 {
        stroke: gray;
        stroke-dasharray: 12;
        stroke-linecap: round;
        stroke-width: 2px;
      }
    </style>
  </defs>
  <text class="cls-2" transform="translate(29.77 48.88) rotate(-45)"><tspan x="0" y="0">S</tspan></text>
  <text class="cls-2" transform="translate(44.74 34.96) rotate(-32)"><tspan x="0" y="0">P</tspan></text>
  <text class="cls-2" transform="translate(62.44 24.8) rotate(-18.9)"><tspan x="0" y="0">E</tspan></text>
  <text class="cls-2" transform="translate(81.95 18.87) rotate(-5.44)"><tspan x="0" y="0">N</tspan></text>
  <text class="cls-2" transform="translate(103.45 17.6) rotate(8.17)"><tspan x="0" y="0">D</tspan></text>
  <text class="cls-2" transform="translate(124.83 21.79) rotate(19.25)"><tspan x="0" y="0">I</tspan></text>
  <text class="cls-2" transform="translate(136.68 26.16) rotate(30.31)"><tspan x="0" y="0">N</tspan></text>
  <text class="cls-2" transform="translate(154.84 37.63) rotate(44.34)"><tspan x="0" y="0">G</tspan></text>
  <text class="cls-2" transform="translate(46.85 198.7) rotate(25.18)"><tspan x="0" y="0">C</tspan></text>
  <text class="cls-2" transform="translate(69.99 208.23) rotate(11.36)"><tspan x="0" y="0">H</tspan></text>
  <text class="cls-2" transform="translate(94.72 211.96) rotate(-2.27)"><tspan x="0" y="0">A</tspan></text>
  <text class="cls-2" transform="translate(119.27 209.62) rotate(-13.28)"><tspan x="0" y="0">I</tspan></text>
  <text class="cls-2" transform="translate(134.23 205.58) rotate(-24.37)"><tspan x="0" y="0">N</tspan></text>
  <circle class="cls-1" cx="98" cy="107.34" r="85"/>
  <path class="cls-4" d="M43.77,187.77C17.96,170.34,1,140.82,1,107.34c0-21.92,7.27-42.15,19.54-58.39"/>
  <path class="cls-4" d="M176.52,50.37c11.63,16,18.48,35.68,18.48,56.97,0,33.45-16.94,62.95-42.7,80.39"/>
  <g>
    <rect class="cls-5" x="63.21" y="95.39" width="17.49" height="38.95"/>
    <rect class="cls-5" x="86.26" y="83.47" width="17.49" height="50.87"/>
    <rect class="cls-5" x="109.31" y="72.34" width="17.49" height="62"/>
  </g>
  <path class="cls-3" d="M36.32,101c3.18-31.26,29.58-55.66,61.68-55.66s58.47,24.36,61.67,55.59"/>
  <path class="cls-3" d="M159.68,113.68c-3.18,31.26-29.58,55.66-61.68,55.66s-58.45-24.34-61.67-55.56"/>
  <polyline class="cls-3" points="169.72 91.36 159.98 104.05 147.28 94.32"/>
  <polyline class="cls-3" points="26.28 123.32 36.02 110.62 48.72 120.36"/>
</svg>